<svg width="204" height="147" viewBox="0 0 204 147" fill="none" xmlns="http://www.w3.org/2000/svg">
<mask id="mask0" style="mask-type:alpha" maskUnits="userSpaceOnUse" x="3" y="35" width="198" height="83">
<path d="M38.4472 116V100.858H3.75621V86.394L34.4922 37.126H54.6062V87.75H64.5502V100.858H54.6062V116H38.4472ZM17.3162 87.75H38.4472V54.641H37.3172L17.3162 87.75ZM102.022 117.356C91.7014 117.356 84.0551 113.778 79.0831 106.621C74.1111 99.4643 71.6251 89.445 71.6251 76.563C71.6251 63.681 74.1111 53.6617 79.0831 46.505C84.0551 39.3483 91.7014 35.77 102.022 35.77C112.343 35.77 119.989 39.3483 124.961 46.505C129.933 53.6617 132.419 63.681 132.419 76.563C132.419 89.445 129.933 99.4643 124.961 106.621C119.989 113.778 112.343 117.356 102.022 117.356ZM102.022 103.005C106.542 103.005 109.668 101.348 111.401 98.033C113.134 94.7183 114 90.0477 114 84.021V69.105C114 63.0783 113.134 58.4077 111.401 55.093C109.668 51.7783 106.542 50.121 102.022 50.121C97.5021 50.121 94.3757 51.7783 92.6431 55.093C90.9104 58.4077 90.0441 63.0783 90.0441 69.105V84.021C90.0441 90.0477 90.9104 94.7183 92.6431 98.033C94.3757 101.348 97.5021 103.005 102.022 103.005ZM173.959 116V100.858H139.268V86.394L170.004 37.126H190.118V87.75H200.062V100.858H190.118V116H173.959ZM152.828 87.75H173.959V54.641H172.829L152.828 87.75Z" fill="#fdfdfd"/>
</mask>
<g mask="url(#mask0)">
<circle cx="69" cy="127" r="100" fill="hsla(127, 31%, 38%, 0.8)"/>
<circle cx="236" cy="73" r="100" fill="#437F4A"/>
<circle cx="3" cy="4" r="100" fill="#437F4A"/>
<circle cx="112" cy="117" r="16" fill="#437F4A"/>
</g>
</svg>
