<svg version="1.1" xmlns="http://www.w3.org/2000/svg" viewBox="0 0 2409.4 2409.4">
	<g>
		<g>
			<path fill='none' d="M1223.1,1550.1l-14-79l199-238v-598h-773v1140h773v-352l-106,127H1223.1z M676.1,676.1h692v40h-692V676.1z
				 M676.1,757.1h692v41h-692V757.1z M676.1,838.1h692v41h-692V838.1z M676.1,919.1h692v41h-692V919.1z M676.1,1001.1h692v40h-692
				V1001.1z M676.1,1082.1h692v41h-692V1082.1z M676.1,1163.1h692v41h-692V1163.1z M676.1,1244.1h346v41h-346V1244.1z M712.1,1729.1
				c-14.9,0-27-12.1-27-27s12.1-27,27-27s27,12.1,27,27S727,1729.1,712.1,1729.1z M1171.1,1550.1h-495v-41h495V1550.1z"/>
			<circle cx="712.1" cy="1702.1" r="27"/>
			<rect x="676.1" y="1001.1" width="692" height="40"/>
			<rect x="676.1" y="1082.1" width="692" height="41"/>
			<rect x="676.1" y="1163.1" width="692" height="41"/>
			<rect x="676.1" y="1244.1" width="346" height="41"/>
			<rect x="676.1" y="1509.1" width="495" height="41"/>
			<rect x="676.1" y="676.1" width="692" height="40"/>
			<rect x="676.1" y="757.1" width="692" height="41"/>
			<rect x="676.1" y="838.1" width="692" height="41"/>
			<rect x="676.1" y="919.1" width="692" height="41"/>
			<path d="M1596.1,1104.1c-26-21-64-18-86,8l-24,28l-26,32l-11,13v-591h-855v1221h855v-441l105-124l26-31l24-29
				C1625.1,1164.1,1622.1,1126.1,1596.1,1104.1z M1408.1,1775.1h-773v-1140h773v598l-199,238l14,79h79l106-127V1775.1z
				 M1449.1,1311.1l-41,49l-125,149h-26l-5-26l239-285l31,26L1449.1,1311.1z M1573.1,1164.1l-24,29l-32-26l24-29c8-9,20-10,29-3
				C1579.1,1143.1,1580.1,1155.1,1573.1,1164.1z"/>
			<rect x="1774.7" y="594.6" width="40.6" height="1220.7"/>
		</g>
	</g>
</svg>
