<svg version="1.1" xmlns="http://www.w3.org/2000/svg" viewBox="0 0 283.5 283.5">
	<g>
		<path fill='none' stroke='currentColor' stroke-width='4' stroke-miterlimit='10' d="M229,257.9H54.4c-15.9,0-28.8-12.9-28.8-28.8V54.4c0-15.9,12.9-28.8,28.8-28.8H229
			c15.9,0,28.8,12.9,28.8,28.8V229C257.9,244.9,245,257.9,229,257.9z"/>
		<g fill='currentColor'>
			<circle cx="191.5" cy="92.3" r="11"/>
			<path d="M142.5,95.4c-25.5,0-46.3,20.8-46.3,46.3c0,25.5,20.8,46.3,46.3,46.3c25.5,0,46.3-20.8,46.3-46.3
				C188.8,116.2,168,95.4,142.5,95.4z M142.5,171.4c-16.4,0-29.7-13.3-29.7-29.7s13.3-29.7,29.7-29.7c16.4,0,29.7,13.3,29.7,29.7
				S158.9,171.4,142.5,171.4z"/>
			<path d="M179.3,235.7h-75.1c-31.1,0-56.5-25.3-56.5-56.5v-75.1c0-31.1,25.3-56.5,56.5-56.5h75.1c31.1,0,56.5,25.3,56.5,56.5v75.1
				C235.7,210.4,210.4,235.7,179.3,235.7z M104.2,65.4c-21.4,0-38.8,17.4-38.8,38.8v75.1c0,21.4,17.4,38.8,38.8,38.8h75.1
				c21.4,0,38.8-17.4,38.8-38.8v-75.1c0-21.4-17.4-38.8-38.8-38.8H104.2z"/>
		</g>
	</g>
</svg>
