<svg version="1.1" xmlns="http://www.w3.org/2000/svg" viewBox="0 0 2409.4 2409.4">
	<g>
		<g>
			<path d="M1204.2,614.7c-163,0-295,132-295,295c0,295,197,394,295,590c99-196,296-295,296-590
				C1500.2,746.7,1367.2,614.7,1204.2,614.7z M1204.4,1051.4c-78.2,0-141.9-63.1-141.9-141.9c0-78.8,63.7-142.4,141.9-142.4
				c78.8,0,142.4,63.7,142.4,142.4C1346.9,988.3,1283.2,1051.4,1204.4,1051.4z"/>
		</g>
		<polygon points="905.2,1204.7 948.2,1204.7 971.2,1245.7 929.2,1245.7 635.2,1754.7 1774.2,1754.7 1774.2,1245.7 1437.2,1245.7 
			1461.2,1204.7 1815.2,1204.7 1815.2,1794.7 594.2,1794.7 594.2,1743.7 			"/>
		<rect x="814.2" y="1673.7" width="924.9" height="40.6"/>
	</g>
</svg>
