<svg version="1.1" xmlns="http://www.w3.org/2000/svg" viewBox="0 0 2409.4 2409.4">
	<g>
		<g>
			<path d="M1814.9,1789.1l-217.8-260.4c-8.9,10.7-18.1,21-27.8,30.9l214.6,255.5L1814.9,1789.1z"/>
			<rect x="594.5" y="594.3" width="40.6" height="1220.7"/>
			<path style="stroke:#000000;stroke-width:2.3619;" d="M1584.9,1514.1l12.2,14.6c73-88,116.8-200.8,116.8-323.6c0-281-228-509-509-509s-509,228-509,509
				c0,280,228,508,509,508c142.8,0,271.9-58.9,364.4-153.5l-16.4-19.5L1584.9,1514.1z M1496.9,1570.1c-12,9-24,19-37,27
				c0-0.2,0-0.3,0-0.5c-73.4,47.7-161,75.5-255,75.5c-94,0-181.6-27.7-255-75.5c0,0.2,0,0.3,0,0.5c-13-8-25-18-37-27
				c0-0.1,0-0.1,0-0.2c-107.2-85.6-176-217.2-176-364.8c0-259,210-468,468-468s468,209,468,468c0,147.7-68.8,279.3-176,364.8
				C1496.9,1570,1496.9,1570.1,1496.9,1570.1z"/>
			<circle style="stroke:#000000;stroke-width:2.3619;" cx="1485.9" cy="923.1" r="27"/>
			<path style="stroke:#000000;stroke-width:2.3619;" d="M1584.9,1514.1l-32,26l16.4,19.5c9.7-9.9,19-20.2,27.8-30.9L1584.9,1514.1z"/>
			<path style="stroke:#000000;stroke-width:2.3619;" d="M912.9,1570.1c12,9,24,19,37,27c0-0.2,0-0.3,0-0.5c-12.8-8.3-25.1-17.2-37-26.7
				C912.9,1570,912.9,1570.1,912.9,1570.1z"/>
			<path style="stroke:#000000;stroke-width:2.3619;" d="M1032.9,1311.1c-7-5-14-10-21-15c-49,66-89,145.9-99,273.8c11.9,9.5,24.2,18.4,37,26.7
				c1.1-116.7,26-193.6,61-253.5C1017.9,1332.1,1024.9,1321.1,1032.9,1311.1z"/>
			<path style="stroke:#000000;stroke-width:2.3619;" d="M1459.9,1597.1c13-8,25-18,37-27c0-0.1,0-0.1,0-0.2c-11.9,9.5-24.2,18.4-37,26.7
				C1459.9,1596.8,1459.9,1597,1459.9,1597.1z"/>
			<path style="stroke:#000000;stroke-width:2.3619;" d="M1376.9,1311.1c46.9,63.9,81.9,146.8,83,285.5c12.8-8.3,25.1-17.2,37-26.7c-10-127.9-50-207.9-99-273.8
				C1390.9,1301.1,1383.9,1306.1,1376.9,1311.1z"/>
			<path style="stroke:#000000;stroke-width:2.3619;" d="M1204.9,939.1c-98,0-177,79-177,177s79,177,177,177s177-79,177-177S1302.9,939.1,1204.9,939.1z
				 M1204.9,1252.1c-75,0-137-61-137-136c0-76,62-137,137-137s137,61,137,137C1341.9,1191.1,1279.9,1252.1,1204.9,1252.1z"/>
		</g>
	</g>
</svg>
