<svg version="1.1" xmlns="http://www.w3.org/2000/svg" viewBox="0 0 2409.4 2409.4">
	<g>
		<g>
			<path fill='none' d="M1000.9,1774.2h774v-1139h-774C1000.9,1014.2,1000.9,1394.2,1000.9,1774.2z M1733.9,1707.2l-70-59l-103,86
				l-102-86l-71,59v-385c11,16,25,30,40,42v258l2-2l2-2l2-2l2-1l2-2l2-2l2-2l2-1l2-2l3-2l2-2l2-1l4-4l2-1l102-86l133,112v-258
				c15-12,29-26,40-42V1707.2z M1560.9,1371.2c-96,0-173-77-173-173c0-95,77-173,173-173s173,78,173,173
				C1733.9,1294.2,1656.9,1371.2,1560.9,1371.2z M1041.9,675.2h692v41h-692V675.2z M1041.9,756.2h692v41h-692V756.2z M1041.9,838.2
				h692v40h-692V838.2z M1068.9,912.2c14.9,0,27,12.1,27,27s-12.1,27-27,27s-27-12.1-27-27S1054,912.2,1068.9,912.2z"/>
			<polygon fill='none' points="1488.9,1622.2 1560.9,1682.2 1632.9,1622.2 1560.9,1562.2 			"/>
			<circle cx="1068.9" cy="939.2" r="27"/>
			<rect x="1041.9" y="756.2" width="692" height="41"/>
			<rect x="1041.9" y="838.2" width="692" height="40"/>
			<rect x="1041.9" y="675.2" width="692" height="41"/>
			<path d="M960.9,594.2c0,407,0,814,0,1221h854v-1221H960.9z M1774.9,1774.2h-774c0-380,0-760,0-1139h774V1774.2z"/>
			<rect x="594.5" y="594.2" width="40.6" height="1220.7"/>
			<path d="M1560.9,1025.2c-96,0-173,78-173,173c0,96,77,173,173,173s173-77,173-173C1733.9,1103.2,1656.9,1025.2,1560.9,1025.2z
				 M1560.9,1332.2c-74,0-133-60-133-134c0-73,59-133,133-133s133,60,133,133C1693.9,1272.2,1634.9,1332.2,1560.9,1332.2z"/>
			<path d="M1693.9,1364.2v258l-133-112l-102,86l-2,1l-4,4l-2,1l-2,2l-3,2l-2,2l-2,1l-2,2l-2,2l-2,2l-2,1l-2,2l-2,2l-2,2v-258
				c-15-12-29-26-40-42v385l71-59l102,86l103-86l70,59v-385C1722.9,1338.2,1708.9,1352.2,1693.9,1364.2z M1560.9,1682.2l-72-60
				l72-60l72,60L1560.9,1682.2z"/>
		</g>
	</g>
</svg>
