<svg version="1.1" xmlns="http://www.w3.org/2000/svg" viewBox="0 0 283.5 283.5">
	<g>
		<g fill='currentColor'>
			<path d="M121.8,184.8c-4.6-1.5-9.2-2.8-13.6-4.7c-5-2.2-9.9-4.7-14.5-7.5c-5.3-3.2-7.6-9.2-6.2-15.2c1.3-5.6,6-10,11.9-10.9
				c3.8-0.6,7.3,0.6,10.6,2.6c8.6,5.4,18.1,8.2,28.3,8.7c13.2,0.8,25.3-2.5,36.6-9.4c6.8-4.1,15.3-2.1,19.5,4.5
				c4.2,6.6,2.4,15.3-4.4,19.6c-8.2,5.3-17.2,9-26.7,11.4c-0.5,0.1-1,0.3-1.6,0.4c0.4,0.5,0.8,0.9,1.1,1.2
				c8.6,8.6,17.2,17.2,25.8,25.8c5.8,5.8,5.9,14.7,0.3,20.4c-5.6,5.7-14.6,5.6-20.4-0.2c-8.6-8.6-17.2-17.2-25.9-25.9
				c-0.2-0.2-0.3-0.4-0.5-0.8c-0.6,0.5-1,0.9-1.3,1.3c-8.3,8.3-16.7,16.7-25,25c-5.1,5-11,6.1-17.3,3.2c-8.1-3.8-10.4-15.6-4.2-22.1
				c7.5-7.7,15.2-15.3,22.8-22.9C118.6,188,120.2,186.3,121.8,184.8z"/>
			<path d="M190.5,96.1c-0.3,28.4-24,50.3-51.9,48.5c-26.1-1.6-46.4-23.4-45.6-50c0.8-27.5,23.9-49,51.7-47.3
				C170.6,49,190.4,70.4,190.5,96.1z M121.6,96c-0.1,10.8,8.5,20.2,20.1,20.2c11.8,0,20.2-9.3,20.2-20.1c0.1-11-9.1-20.3-20.1-20.2
				C130.6,75.9,121.6,84.8,121.6,96z"/>
		</g>
		<path fill='none' stroke='currentColor' stroke-width='4' stroke-miterlimit='10' d="M229,257.9H54.4c-15.9,0-28.8-12.9-28.8-28.8V54.4c0-15.9,12.9-28.8,28.8-28.8H229
			c15.9,0,28.8,12.9,28.8,28.8V229C257.9,244.9,245,257.9,229,257.9z"/>
	</g>
</svg>
