<svg version="1.1" xmlns="http://www.w3.org/2000/svg" viewBox="0 0 283.5 283.5">
	<g>
		<path fill='none' stroke='currentColor' stroke-width='4' stroke-miterlimit='10'  d="M229,257.9H54.4c-15.9,0-28.8-12.9-28.8-28.8V54.4c0-15.9,12.9-28.8,28.8-28.8H229
			c15.9,0,28.8,12.9,28.8,28.8V229C257.9,244.9,245,257.9,229,257.9z"/>
		<path fill='currentColor' d="M131.9,44.9c49.3,0,79.5,20.2,79.5,62.4c0,44.8-31.9,65.2-76.1,65.2h-15.7c-3.5,0-6.4,2.9-6.4,6.4v53.2
			c0,3.5-2.9,6.4-6.4,6.4H78.4c-3.5,0-6.4-2.9-6.4-6.4V51.3c0-3.5,2.9-6.4,6.4-6.4H131.9z M131.9,142.3c22.7,0,37-8.7,37-35
			c0-22.7-13.4-32.8-37.5-32.8h-11.8c-3.5,0-6.4,2.9-6.4,6.4v54.9c0,3.5,2.9,6.4,6.4,6.4H131.9z"/>
	</g>
</svg>
