<svg version="1.1" xmlns="http://www.w3.org/2000/svg" viewBox="0 0 2409.4 2409.4">
	<g>
		<g>
			<path fill='none' d="M1459.2,1510.4h-509c0-110.5,21.9-185,54.3-244.2c36.5-30.9,60.4-76.3,62.6-127.3
				c32.7,40,82.5,65.4,138.2,65.4c55.6,0,105.6-25.9,138.1-66.5c1.8,51.2,25.3,96.8,61.5,127.9
				C1437.3,1324.6,1459.2,1399.6,1459.2,1510.4z"/>
			<path d="M1182.2,1591.4h-38c0,7,0,15,0,22h-509c0-117,25-194,61-255c6-11,14-22,21-32c-7-5-14-10-21-15c-57,77-102,174-102,343
				h591C1185.2,1632.4,1184.2,1611.4,1182.2,1591.4z"/>
			<path d="M1713.2,1311.4c-7,5-14,10-21,15c47,65,82,148,82,287h-509c0-7,0-15,0-22h-38c-2,20-3,41-3,63h591
				C1815.2,1485.4,1770.2,1388.4,1713.2,1311.4z"/>
			<path d="M1520.2,954.4c-56,0-105.8,25.8-138.2,66.2c-3.6-94.8-82.1-170.2-176.8-170.2c-95.5,0-173.8,75-177.8,169.4
				c-32.7-40-82.5-65.4-138.2-65.4c-97,0-177,79-177,177s80,177,177,177c24.8,0,48.5-5.1,70-14.2c-30.2,63.9-50,144.3-50,256.2h591
				c0-111.9-19.8-192.3-49.6-256.1c21.4,9.1,44.9,14.1,69.6,14.1c98,0,177-79,177-177S1618.2,954.4,1520.2,954.4z M1205.2,891.4
				c75,0,136,61,136,136s-61,137-136,137c-76,0-137-62-137-137S1129.2,891.4,1205.2,891.4z M889.2,1267.4c-75,0-136-61-136-136
				s61-137,136-137c76,0,137,62,137,137S965.2,1267.4,889.2,1267.4z M1459.2,1510.4h-509c0-110.5,21.9-185,54.3-244.2
				c36.5-30.9,60.4-76.3,62.6-127.3c32.7,40,82.5,65.4,138.2,65.4c55.6,0,105.6-25.9,138.1-66.5c1.8,51.2,25.3,96.8,61.5,127.9
				C1437.3,1324.6,1459.2,1399.6,1459.2,1510.4z M1520.2,1267.4c-76,0-137-61-137-136s61-137,137-137c75,0,136,62,136,137
				S1595.2,1267.4,1520.2,1267.4z"/>
			<rect x="594.2" y="1774.4" width="1220.7" height="40.6"/>
			<rect x="594.2" y="594.4" width="1220.7" height="40.6"/>
			<rect x="594.2" y="1693.4" width="1220.7" height="40.6"/>
		</g>
	</g>
</svg>
