<svg version="1.1" xmlns="http://www.w3.org/2000/svg" viewBox="0 0 283.5 283.5">
	<g>
		<path fill='none' stroke='currentColor' stroke-width='4' stroke-miterlimit='10' d="M229,257.9H54.4c-15.9,0-28.8-12.9-28.8-28.8V54.4c0-15.9,12.9-28.8,28.8-28.8H229
			c15.9,0,28.8,12.9,28.8,28.8V229C257.9,244.9,245,257.9,229,257.9z"/>
		<path fill='currentColor' d="M216.3,169.5c-8.3-4.7-19.1-10-28.8-6.2c-7.5,2.9-12.3,14.1-17.1,19.8c-2.5,2.9-5.5,3.4-9.3,1.9
			c-28.1-10.7-49.7-28.5-65.2-53.1c-2.6-3.8-2.2-6.8,1-10.4c4.7-5.2,10.6-11.2,11.8-18.3c1.3-7.1-2.2-15.3-5.3-21.6
			c-3.9-8-8.3-19.5-16.8-24.1c-7.8-4.2-18.1-1.8-25,3.5c-12,9.3-17.8,23.8-17.6,38.2c0,4.1,0.6,8.2,1.6,12.1
			c2.4,9.5,7,18.4,12.2,26.8c3.9,6.4,8.2,12.5,12.8,18.5c15,19.4,33.8,36.3,55.4,48.9c10.8,6.3,22.5,11.8,34.6,15.6
			c13.5,4.3,25.6,8.7,40.2,6c15.3-2.8,30.4-11.8,36.5-25.8c1.8-4.2,2.7-8.8,1.7-13.2C236.9,179.3,224,173.9,216.3,169.5z"/>
	</g>
</svg>
