<svg version="1.1" xmlns="http://www.w3.org/2000/svg" viewBox="0 0 283.5 283.5">
	<g>
		<path fill='none' stroke='currentColor' stroke-width='4' stroke-miterlimit='10' d="M229,257.9H54.4c-15.9,0-28.8-12.9-28.8-28.8V54.4c0-15.9,12.9-28.8,28.8-28.8H229
			c15.9,0,28.8,12.9,28.8,28.8V229C257.9,244.9,245,257.9,229,257.9z"/>
		<g fill='currentColor'>
			<path d="M227.2,41.6H56.3c-11,0-20,9-20,20v160.2c0,11,9,20,20,20h170.9c11,0,20-9,20-20V61.6C247.2,50.6,238.2,41.6,227.2,41.6z
				 M231.2,221.8c0,2.2-1.8,4-4,4H56.3c-2.2,0-4-1.8-4-4V61.6c0-2.2,1.8-4,4-4h170.9c2.2,0,4,1.8,4,4V221.8z"/>
			<path d="M206.5,65.9H77c-7,0-12.6,5.7-12.6,12.6V119c0,7,5.7,12.6,12.6,12.6h62.7v16.7h-66c-1.1,0-2,0.9-2,2s0.9,2,2,2h13.5V170
				H77c-7,0-12.6,5.7-12.6,12.6v19.7c0,7,5.7,12.6,12.6,12.6h23.1c7,0,12.6-5.7,12.6-12.6v-19.7c0-7-5.7-12.6-12.6-12.6h-8.9v-17.7
				h48.5v1.3V170h-9.6c-7,0-12.6,5.7-12.6,12.6v19.7c0,7,5.7,12.6,12.6,12.6h23.1c7,0,12.6-5.7,12.6-12.6v-19.7
				c0-7-5.7-12.6-12.6-12.6h-9.6v-16.4v-1.3h49.2V170h-9.6c-7,0-12.6,5.7-12.6,12.6v19.7c0,7,5.7,12.6,12.6,12.6h23.1
				c7,0,12.6-5.7,12.6-12.6v-19.7c0-7-5.7-12.6-12.6-12.6h-9.6v-17.7h12.8c1.1,0,2-0.9,2-2s-0.9-2-2-2h-66v-16.7h62.7
				c7,0,12.6-5.7,12.6-12.6V78.6C219.1,71.6,213.4,65.9,206.5,65.9z M98.7,201H78.4v-17h20.4V201z M151.9,201h-20.4v-17h20.4V201z
				 M205.1,201h-20.4v-17h20.4V201z M205.1,117.7H78.4V79.9h126.8V117.7z"/>
		</g>
	</g>
</svg>
