<svg version="1.1" xmlns="http://www.w3.org/2000/svg" viewBox="0 0 283.5 283.5">
	<g>
		<g>
			<path d="M166.9,36.5c-44.7,0-81,36.3-81,81c0,20,7.3,38.4,19.4,52.6l-67.1,62.5c-3.4,3.1-3.6,8.4-0.4,11.8
				c1.6,1.8,3.9,2.7,6.1,2.7c2,0,4.1-0.7,5.7-2.2l67.8-63.2c13.7,10.5,30.8,16.8,49.4,16.8c44.6,0,81-36.3,81-81
				C247.9,72.8,211.5,36.5,166.9,36.5z M166.9,182.8c-36.1,0-65.4-29.3-65.4-65.4c0-36.1,29.3-65.4,65.4-65.4
				c36.1,0,65.4,29.3,65.4,65.4C232.3,153.5,203,182.8,166.9,182.8z"/>
		</g>
		<g>
			<path d="M166.9,176.3c-32.4,0-58.8-26.4-58.8-58.8c0-32.4,26.4-58.8,58.8-58.8c32.4,0,58.8,26.4,58.8,58.8
				C225.7,149.9,199.3,176.3,166.9,176.3z M166.9,63.4c-29.8,0-54,24.2-54,54c0,29.8,24.2,54,54,54s54-24.2,54-54
				C220.9,87.6,196.7,63.4,166.9,63.4z"/>
		</g>
	</g>
</svg>
