<svg version="1.1" xmlns="http://www.w3.org/2000/svg" viewBox="0 0 283.5 283.5">
	<g>
		<path fill='none' stroke='#000000' stroke-width='4' stroke-miterlimit='10' class="st2" d="M229,257.9H54.4c-15.9,0-28.8-12.9-28.8-28.8V54.4c0-15.9,12.9-28.8,28.8-28.8H229
			c15.9,0,28.8,12.9,28.8,28.8V229C257.9,244.9,245,257.9,229,257.9z"/>
		<path fill='#000' d="M157.6,115.3c0,6.8,0,13.6,0,20.4c0,1.3,0.2,2.7,0.6,3.9c0.7,2.2,2.2,2.8,4.4,2.1c2-0.6,3.4-1.9,4.9-3.2
			c4.3-3.8,7.7-8.4,11-13.2c6.8-9.9,12.4-20.4,17.1-31.4c1.1-2.6,2.7-4.8,5.5-5.7c1.1-0.3,2.2-0.5,3.4-0.6c7.1,0,14.1,0,21.2,0
			c0.8,0,1.7,0.1,2.5,0.3c3,0.7,4.4,2.7,3.8,5.7c-0.6,3.2-1.8,6.1-3.2,9c-3.9,8-8.6,15.5-13.4,22.9c-3.7,5.6-7.5,11.1-11.2,16.7
			c-0.7,1-1.3,2.1-1.8,3.2c-0.7,1.4-0.6,2.8,0.1,4.1c0.6,1.1,1.3,2.1,2.2,3.1c5.7,6.1,11.4,12.1,17,18.2c4.1,4.5,8,9.3,11.2,14.6
			c1.3,2.2,2.6,4.4,3,7c0.6,4-1.3,6.5-5.4,7c-0.9,0.1-1.7,0.2-2.6,0.2c-6.5,0-12.9-0.1-19.4,0c-3.5,0-6.5-1-8.9-3.4
			c-2.6-2.6-5.1-5.3-7.6-8c-5.1-5.6-10.4-11.2-16.3-15.9c-2.7-2.2-5.5-4.2-8.8-5.5c-1.9-0.8-3.9-1-5.9-0.6c-1.4,0.2-2.4,1-2.7,2.4
			c-0.3,1.1-0.5,2.3-0.5,3.5c-0.1,6.3,0,12.6-0.1,18.9c0,0.8,0,1.6-0.1,2.4c-0.2,2.3-1.4,3.9-3.4,4.8c-2.2,0.9-4.5,1.2-6.8,1.4
			c-13,0.9-25-2.5-36.2-8.8c-12.2-6.8-22-16.3-30.1-27.6c-9.2-12.9-17.5-26.3-24.1-40.7c-3.4-7.4-6.4-15.1-8.4-23
			c-0.5-2-0.8-4-0.9-6c-0.1-3.2,1.6-5.1,4.8-5.5c0.8-0.1,1.6-0.2,2.4-0.2c6.7,0,13.4,0,20.1,0c0.9,0,1.8,0.1,2.7,0.2
			c2.2,0.4,3.9,1.6,4.9,3.6c0.9,1.7,1.6,3.4,2.3,5.2c4.8,13.6,10.9,26.6,18.7,38.8c2.6,4.1,5.5,8.1,9,11.5c1.1,1.1,2.4,2,3.7,3
			c0.5,0.4,1.2,0.6,1.8,0.7c1.9,0.4,3.4-0.4,3.8-2.2c0.4-1.5,0.6-3.1,0.6-4.7c0.1-10.3,0.1-20.6,0-31c-0.1-5.7-1.8-10.8-5.5-15.2
			c-0.6-0.7-1.2-1.5-1.7-2.3c-2.2-3.4-0.1-7.3,3.9-7.6c0.3,0,0.7,0,1,0c10.4,0,20.8,0,31.2,0c4.3,0,6.1,1.6,6.3,5.9
			c0.1,5.3,0.1,10.5,0.1,15.8C157.6,111.4,157.6,113.4,157.6,115.3z"/>
	</g>
</svg>
