<svg version="1.1" xmlns="http://www.w3.org/2000/svg" viewBox="0 0 2409.4 2409.4">
	<g>
		<g>
			<polygon points="1204.7,899.2 748.7,899.2 748.7,940.2 1204.7,940.2"/>
			<polygon points="1204.7,1550.2 748.7,1550.2 748.7,1591.2 1204.7,1591.2"/>
			<polygon points="1204.7,1245.2 748.7,1245.2 748.7,1286.2 1204.7,1286.2"/>
			<polygon points="1588.7,785.2 1448.7,951.2 1354.7,839.2 1323.7,865.2 1422.7,982.2 1448.7,1014.2 1619.7,811.2"/>
			<polygon points="675.7,1774.2 675.7,635.2 634.7,635.2 634.7,1774.2"/>
			<polygon points="1774.7,1774.2 1774.7,635.2 1733.7,635.2 1733.7,1774.2"/>
			<polygon points="634.7,675.2 1774.7,675.2 1774.7,635.2 634.7,635.2"/>
			<polygon points="634.7,1774.2 1774.7,1774.2 1774.7,1734.2 634.7,1734.2"/>
			<g>
				<path d="M1330.7,1294.2l12-11c27,18,27,21,61,21c32,0,62-35,63-73h17c4,42,31,69,75,69c20,0,31-10,44-17l10,11c-3,9-14,15-17,35
					c-7,37,14,72,46,81c19,6,18-3,18,22c-11,0-19,2-27,5c-15,6-27,19-35,33c-6,11-7,21-7,35c0,19,10,32,18,44l-12,11
					c-21-11-40-22-73-8c-20,8-38,31-40,56h-17c-1-50-55-81-99-61c-9,5-12,8-20,13l-12-11c15-25,25-41,12-75c-9-24-34-42-65-42v-17
					c37-9,67-23,67-73C1349.7,1320.2,1339.7,1307.2,1330.7,1294.2z M1399.7,1267.2c-31,0-43-27-59-27c-14,0-52,42-52,48
					c0,30,44,44,16,78c-5,6-11,9-21,11c-40,9-37,2-37,61c0,44,40,18,61,40c27,31-13,50-13,75c0,10,39,49,50,49c20,0,30-25,51-25
					c49,0,25,66,54,66h55c5,0,10-7,12-10c2-5,2-13,3-18c3-13,6-22,16-28c30-18,43,15,63,15c14,0,52-40,52-51c0-16-41-44-14-72
					c21-21,60-4,60-32v-48c0-24-31-17-48-26c-9-5-15-11-18-21c-3-12,1-20,7-28c11-17,28-29,9-49c-8-7-31-35-42-35c-16,0-29,23-50,23
					c-50,0-24-68-52-68c-72,0-64-7-73,39C1426.7,1250.2,1416.7,1267.2,1399.7,1267.2z"/>
				<path d="M1468.7,1369.2c63,0,71,78,22,97c-40,15-82-23-65-66C1430.7,1385.2,1449.7,1369.2,1468.7,1369.2z M1558.7,1420.2
					c0-103-135-115-166-36c-22,55,10,110,60,120c28,5,53-1,74-18C1545.7,1471.2,1558.7,1448.2,1558.7,1420.2z"/>
			</g>
		</g>
	</g>
</svg>
