<svg version="1.1" xmlns="http://www.w3.org/2000/svg" viewBox="0 0 2409.4 2409.4">
	<g>
		<g>
			<rect x="594.4" y="1733.4" width="1220.7" height="40.6"/>
			<g>
				<path d="M726.2,1200.4c0,55,22,65,68,111l62,62c6,6,14,17,24,17c11,0,22-10,22-25c0-16-54-64-67-77c-24-23-65-56-65-81
					c0-23,22-44,44-44c21,0,32,15,43,26c12,12,23,23,35,35c42,42,78,58,139,68c25,5,37,4,56,14c29,15,49,47,49,90v251h-190v-112
					c0-17-25-25-39-32c-16-8-31-15-47-23c-70-36-115-57-152-131c-16-33-26-70-26-118v-284c0-64,88-64,88,0v178c0,6-2,6-5,8
					C745.2,1151.4,726.2,1168.4,726.2,1200.4z M638.2,936.4v319c0,57,25,114,54,155c4,6,11,15,16,20c20,20,26,29,55,49
					c16,11,125,68,139,71v119c1,13,7,22,20,22h238c11,0,20-9,20-20v-290c0-41-24-79-52-102c-41-33-67-23-119-38
					c-114-32-112-122-195-122v-183c0-40-41-81-81-81h-13C679.2,855.4,638.2,896.4,638.2,936.4z"/>
				<path d="M1644.2,1133.4c-3-2-5-2-5-8v-178c0-64,88-64,88,0v284c0,48-10,85-26,118c-37,74-82,95-152,131c-16,8-31,15-47,23
					c-14,7-39,15-39,32v112h-190v-251c0-43,20-75,49-90c19-10,31-9,56-14c61-10,97-26,139-68c12-12,23-23,35-35c11-11,22-26,43-26
					c22,0,44,21,44,44c0,25-41,58-65,81c-13,13-67,61-67,77c0,15,11,25,22,25c10,0,18-11,24-17l62-62c46-46,68-56,68-111
					C1683.2,1168.4,1664.2,1151.4,1644.2,1133.4z M1689.2,855.4h-13c-40,0-81,41-81,81v183c-83,0-81,90-195,122c-52,15-78,5-119,38
					c-28,23-52,61-52,102v290c0,11,9,20,20,20h238c13,0,19-9,20-22v-119c14-3,123-60,139-71c29-20,35-29,55-49c5-5,12-14,16-20
					c29-41,54-98,54-155v-319C1771.2,896.4,1730.2,855.4,1689.2,855.4z"/>
			</g>
			<path d="M1051.4,1106.4c0-69,36-126,89-149c46-19,84-19,129,0c53,23,90,80,90,149v57h-308V1106.4z M1117.4,767.4
				c0-33,21-67,52-80c24-11,48-11,72,0c7,3,21,13,26,17c43,44,28,119-26,143C1178.4,874.4,1117.4,826.4,1117.4,767.4z M1073.4,756.4
				c0,26,0,42,11,67c16,34,49,62,87,72l12,4c-52,12-77,16-121,60c-67,66-55,139-55,228c0,11,9,20,19,20h357c11,0,20-9,20-20
				c0-86,11-163-55-227c-25-25-49-42-84-53c-11-3-24-5-37-8c8-5,66-11,97-75c26-53,11-124-32-157c-36-28-51-32-98-32
				c-14,0-37,7-47,12c-20,10-36,24-49,41C1085.4,706.4,1073.4,733.4,1073.4,756.4z"/>
		</g>
	</g>
</svg>
