<svg version="1.1" xmlns="http://www.w3.org/2000/svg">
  <defs>
    <symbol id='vk' viewBox="0 0 283.5 283.5">
      <g>
        <path fill='none' stroke='currentColor' stroke-width='8' stroke-miterlimit='10' d="M229,257.9H54.4c-15.9,0-28.8-12.9-28.8-28.8V54.4c0-15.9,12.9-28.8,28.8-28.8H229
          c15.9,0,28.8,12.9,28.8,28.8V229C257.9,244.9,245,257.9,229,257.9z"/>
        <path fill='currentColor' d="M157.6,115.3c0,6.8,0,13.6,0,20.4c0,1.3,0.2,2.7,0.6,3.9c0.7,2.2,2.2,2.8,4.4,2.1c2-0.6,3.4-1.9,4.9-3.2
          c4.3-3.8,7.7-8.4,11-13.2c6.8-9.9,12.4-20.4,17.1-31.4c1.1-2.6,2.7-4.8,5.5-5.7c1.1-0.3,2.2-0.5,3.4-0.6c7.1,0,14.1,0,21.2,0
          c0.8,0,1.7,0.1,2.5,0.3c3,0.7,4.4,2.7,3.8,5.7c-0.6,3.2-1.8,6.1-3.2,9c-3.9,8-8.6,15.5-13.4,22.9c-3.7,5.6-7.5,11.1-11.2,16.7
          c-0.7,1-1.3,2.1-1.8,3.2c-0.7,1.4-0.6,2.8,0.1,4.1c0.6,1.1,1.3,2.1,2.2,3.1c5.7,6.1,11.4,12.1,17,18.2c4.1,4.5,8,9.3,11.2,14.6
          c1.3,2.2,2.6,4.4,3,7c0.6,4-1.3,6.5-5.4,7c-0.9,0.1-1.7,0.2-2.6,0.2c-6.5,0-12.9-0.1-19.4,0c-3.5,0-6.5-1-8.9-3.4
          c-2.6-2.6-5.1-5.3-7.6-8c-5.1-5.6-10.4-11.2-16.3-15.9c-2.7-2.2-5.5-4.2-8.8-5.5c-1.9-0.8-3.9-1-5.9-0.6c-1.4,0.2-2.4,1-2.7,2.4
          c-0.3,1.1-0.5,2.3-0.5,3.5c-0.1,6.3,0,12.6-0.1,18.9c0,0.8,0,1.6-0.1,2.4c-0.2,2.3-1.4,3.9-3.4,4.8c-2.2,0.9-4.5,1.2-6.8,1.4
          c-13,0.9-25-2.5-36.2-8.8c-12.2-6.8-22-16.3-30.1-27.6c-9.2-12.9-17.5-26.3-24.1-40.7c-3.4-7.4-6.4-15.1-8.4-23
          c-0.5-2-0.8-4-0.9-6c-0.1-3.2,1.6-5.1,4.8-5.5c0.8-0.1,1.6-0.2,2.4-0.2c6.7,0,13.4,0,20.1,0c0.9,0,1.8,0.1,2.7,0.2
          c2.2,0.4,3.9,1.6,4.9,3.6c0.9,1.7,1.6,3.4,2.3,5.2c4.8,13.6,10.9,26.6,18.7,38.8c2.6,4.1,5.5,8.1,9,11.5c1.1,1.1,2.4,2,3.7,3
          c0.5,0.4,1.2,0.6,1.8,0.7c1.9,0.4,3.4-0.4,3.8-2.2c0.4-1.5,0.6-3.1,0.6-4.7c0.1-10.3,0.1-20.6,0-31c-0.1-5.7-1.8-10.8-5.5-15.2
          c-0.6-0.7-1.2-1.5-1.7-2.3c-2.2-3.4-0.1-7.3,3.9-7.6c0.3,0,0.7,0,1,0c10.4,0,20.8,0,31.2,0c4.3,0,6.1,1.6,6.3,5.9
          c0.1,5.3,0.1,10.5,0.1,15.8C157.6,111.4,157.6,113.4,157.6,115.3z"/>
      </g>
    </symbol>
    <symbol id='ok' viewBox="0 0 283.5 283.5">
      <g>
        <g fill='currentColor'>
          <path d="M121.8,184.8c-4.6-1.5-9.2-2.8-13.6-4.7c-5-2.2-9.9-4.7-14.5-7.5c-5.3-3.2-7.6-9.2-6.2-15.2c1.3-5.6,6-10,11.9-10.9
            c3.8-0.6,7.3,0.6,10.6,2.6c8.6,5.4,18.1,8.2,28.3,8.7c13.2,0.8,25.3-2.5,36.6-9.4c6.8-4.1,15.3-2.1,19.5,4.5
            c4.2,6.6,2.4,15.3-4.4,19.6c-8.2,5.3-17.2,9-26.7,11.4c-0.5,0.1-1,0.3-1.6,0.4c0.4,0.5,0.8,0.9,1.1,1.2
            c8.6,8.6,17.2,17.2,25.8,25.8c5.8,5.8,5.9,14.7,0.3,20.4c-5.6,5.7-14.6,5.6-20.4-0.2c-8.6-8.6-17.2-17.2-25.9-25.9
            c-0.2-0.2-0.3-0.4-0.5-0.8c-0.6,0.5-1,0.9-1.3,1.3c-8.3,8.3-16.7,16.7-25,25c-5.1,5-11,6.1-17.3,3.2c-8.1-3.8-10.4-15.6-4.2-22.1
            c7.5-7.7,15.2-15.3,22.8-22.9C118.6,188,120.2,186.3,121.8,184.8z"/>
          <path d="M190.5,96.1c-0.3,28.4-24,50.3-51.9,48.5c-26.1-1.6-46.4-23.4-45.6-50c0.8-27.5,23.9-49,51.7-47.3
            C170.6,49,190.4,70.4,190.5,96.1z M121.6,96c-0.1,10.8,8.5,20.2,20.1,20.2c11.8,0,20.2-9.3,20.2-20.1c0.1-11-9.1-20.3-20.1-20.2
            C130.6,75.9,121.6,84.8,121.6,96z"/>
        </g>
        <path fill='none' stroke='currentColor' stroke-width='8' stroke-miterlimit='10' d="M229,257.9H54.4c-15.9,0-28.8-12.9-28.8-28.8V54.4c0-15.9,12.9-28.8,28.8-28.8H229
          c15.9,0,28.8,12.9,28.8,28.8V229C257.9,244.9,245,257.9,229,257.9z"/>
      </g>
    </symbol>
    <symbol id='instagram' viewBox="0 0 283.5 283.5">
      <g>
        <path fill='none' stroke='currentColor' stroke-width='8' stroke-miterlimit='10' d="M229,257.9H54.4c-15.9,0-28.8-12.9-28.8-28.8V54.4c0-15.9,12.9-28.8,28.8-28.8H229
          c15.9,0,28.8,12.9,28.8,28.8V229C257.9,244.9,245,257.9,229,257.9z"/>
        <g fill='currentColor'>
          <circle cx="191.5" cy="92.3" r="11"/>
          <path d="M142.5,95.4c-25.5,0-46.3,20.8-46.3,46.3c0,25.5,20.8,46.3,46.3,46.3c25.5,0,46.3-20.8,46.3-46.3
            C188.8,116.2,168,95.4,142.5,95.4z M142.5,171.4c-16.4,0-29.7-13.3-29.7-29.7s13.3-29.7,29.7-29.7c16.4,0,29.7,13.3,29.7,29.7
            S158.9,171.4,142.5,171.4z"/>
          <path d="M179.3,235.7h-75.1c-31.1,0-56.5-25.3-56.5-56.5v-75.1c0-31.1,25.3-56.5,56.5-56.5h75.1c31.1,0,56.5,25.3,56.5,56.5v75.1
            C235.7,210.4,210.4,235.7,179.3,235.7z M104.2,65.4c-21.4,0-38.8,17.4-38.8,38.8v75.1c0,21.4,17.4,38.8,38.8,38.8h75.1
            c21.4,0,38.8-17.4,38.8-38.8v-75.1c0-21.4-17.4-38.8-38.8-38.8H104.2z"/>
        </g>
      </g>
    </symbol>
    <symbol id='geo' viewBox="0 0 283.5 283.5">
      <g>
        <path fill='none' stroke='none' stroke-width='8' stroke-miterlimit='10' d="M229,257.9H54.4c-15.9,0-28.8-12.9-28.8-28.8V54.4c0-15.9,12.9-28.8,28.8-28.8H229
          c15.9,0,28.8,12.9,28.8,28.8V229C257.9,244.9,245,257.9,229,257.9z"/>
        <g>
          <path fill='currentColor' d="M141.7,44.6c-39.5,0-71.5,36.7-71.5,76.2c0,48.7,55.8,101.8,68.8,116.9c1.4,1.7,4,1.7,5.4,0c13-15.1,68.8-65,68.8-116.9
            C213.3,81.2,181.2,44.6,141.7,44.6z M141.7,145.3c-16.1,0-29.1-13-29.1-29.1s13-29.1,29.1-29.1s29.1,13,29.1,29.1
            S157.8,145.3,141.7,145.3z"/>
        </g>
      </g>
    </symbol>
    <symbol id='parking' viewBox="0 0 283.5 283.5">
      <g>
        <path fill='none' stroke='none' stroke-width='8' stroke-miterlimit='10'  d="M229,257.9H54.4c-15.9,0-28.8-12.9-28.8-28.8V54.4c0-15.9,12.9-28.8,28.8-28.8H229
          c15.9,0,28.8,12.9,28.8,28.8V229C257.9,244.9,245,257.9,229,257.9z"/>
        <path fill='currentColor' d="M131.9,44.9c49.3,0,79.5,20.2,79.5,62.4c0,44.8-31.9,65.2-76.1,65.2h-15.7c-3.5,0-6.4,2.9-6.4,6.4v53.2
          c0,3.5-2.9,6.4-6.4,6.4H78.4c-3.5,0-6.4-2.9-6.4-6.4V51.3c0-3.5,2.9-6.4,6.4-6.4H131.9z M131.9,142.3c22.7,0,37-8.7,37-35
          c0-22.7-13.4-32.8-37.5-32.8h-11.8c-3.5,0-6.4,2.9-6.4,6.4v54.9c0,3.5,2.9,6.4,6.4,6.4H131.9z"/>
      </g>
    </symbol>
    <symbol id='phone' viewBox="0 0 283.5 283.5">
      <g>
        <path fill='none' stroke='none' stroke-width='8' stroke-miterlimit='10' d="M229,257.9H54.4c-15.9,0-28.8-12.9-28.8-28.8V54.4c0-15.9,12.9-28.8,28.8-28.8H229
          c15.9,0,28.8,12.9,28.8,28.8V229C257.9,244.9,245,257.9,229,257.9z"/>
        <path fill='currentColor' d="M216.3,169.5c-8.3-4.7-19.1-10-28.8-6.2c-7.5,2.9-12.3,14.1-17.1,19.8c-2.5,2.9-5.5,3.4-9.3,1.9
          c-28.1-10.7-49.7-28.5-65.2-53.1c-2.6-3.8-2.2-6.8,1-10.4c4.7-5.2,10.6-11.2,11.8-18.3c1.3-7.1-2.2-15.3-5.3-21.6
          c-3.9-8-8.3-19.5-16.8-24.1c-7.8-4.2-18.1-1.8-25,3.5c-12,9.3-17.8,23.8-17.6,38.2c0,4.1,0.6,8.2,1.6,12.1
          c2.4,9.5,7,18.4,12.2,26.8c3.9,6.4,8.2,12.5,12.8,18.5c15,19.4,33.8,36.3,55.4,48.9c10.8,6.3,22.5,11.8,34.6,15.6
          c13.5,4.3,25.6,8.7,40.2,6c15.3-2.8,30.4-11.8,36.5-25.8c1.8-4.2,2.7-8.8,1.7-13.2C236.9,179.3,224,173.9,216.3,169.5z"/>
      </g>
    </symbol>
    <symbol id='scheme' viewBox="0 0 283.5 283.5">
      <g>
        <path fill='none' stroke='none' stroke-width='8' stroke-miterlimit='10' d="M229,257.9H54.4c-15.9,0-28.8-12.9-28.8-28.8V54.4c0-15.9,12.9-28.8,28.8-28.8H229
          c15.9,0,28.8,12.9,28.8,28.8V229C257.9,244.9,245,257.9,229,257.9z"/>
        <g fill='currentColor'>
          <path d="M227.2,41.6H56.3c-11,0-20,9-20,20v160.2c0,11,9,20,20,20h170.9c11,0,20-9,20-20V61.6C247.2,50.6,238.2,41.6,227.2,41.6z
            M231.2,221.8c0,2.2-1.8,4-4,4H56.3c-2.2,0-4-1.8-4-4V61.6c0-2.2,1.8-4,4-4h170.9c2.2,0,4,1.8,4,4V221.8z"/>
          <path d="M206.5,65.9H77c-7,0-12.6,5.7-12.6,12.6V119c0,7,5.7,12.6,12.6,12.6h62.7v16.7h-66c-1.1,0-2,0.9-2,2s0.9,2,2,2h13.5V170
            H77c-7,0-12.6,5.7-12.6,12.6v19.7c0,7,5.7,12.6,12.6,12.6h23.1c7,0,12.6-5.7,12.6-12.6v-19.7c0-7-5.7-12.6-12.6-12.6h-8.9v-17.7
            h48.5v1.3V170h-9.6c-7,0-12.6,5.7-12.6,12.6v19.7c0,7,5.7,12.6,12.6,12.6h23.1c7,0,12.6-5.7,12.6-12.6v-19.7
            c0-7-5.7-12.6-12.6-12.6h-9.6v-16.4v-1.3h49.2V170h-9.6c-7,0-12.6,5.7-12.6,12.6v19.7c0,7,5.7,12.6,12.6,12.6h23.1
            c7,0,12.6-5.7,12.6-12.6v-19.7c0-7-5.7-12.6-12.6-12.6h-9.6v-17.7h12.8c1.1,0,2-0.9,2-2s-0.9-2-2-2h-66v-16.7h62.7
            c7,0,12.6-5.7,12.6-12.6V78.6C219.1,71.6,213.4,65.9,206.5,65.9z M98.7,201H78.4v-17h20.4V201z M151.9,201h-20.4v-17h20.4V201z
            M205.1,201h-20.4v-17h20.4V201z M205.1,117.7H78.4V79.9h126.8V117.7z"/>
        </g>
      </g>
    </symbol>
    <symbol id='time' viewBox="0 0 283.5 283.5">
      <g>
        <path fill='none' stroke='none' stroke-width='8' stroke-miterlimit='10' d="M229,257.9H54.4c-15.9,0-28.8-12.9-28.8-28.8V54.4c0-15.9,12.9-28.8,28.8-28.8H229
          c15.9,0,28.8,12.9,28.8,28.8V229C257.9,244.9,245,257.9,229,257.9z"/>
        <path fill='currentColor' d="M143.5,47.4C90,46.4,46.4,90,47.4,143.5c0.9,50.4,42.1,91.6,92.5,92.5c53.5,1,97.1-42.6,96.1-96.1
          C235.1,89.5,194,48.4,143.5,47.4z M192.4,194.7c-1.9,2.7-5.7,2.8-7.8,0.5l-39.5-42.4c-0.3-0.3-0.6-0.4-1-0.3
          c-1,0.2-2.2,0.3-3.3,0.2c-5.6-0.4-10-5.2-10.1-10.8c-0.1-4,2-7.5,5.1-9.5c0.3-0.2,0.4-0.4,0.4-0.7V90.3c0-2.8,2.3-5,5-5h1
          c2.8,0,5,2.3,5,5v41.4c0,0.3,0.2,0.6,0.4,0.7c3.1,2,5.1,5.4,5.1,9.3c0,1.2-0.2,2.3-0.5,3.3c-0.1,0.3,0,0.6,0.2,0.9l39.4,42.3
          C193.4,190,193.7,192.7,192.4,194.7z"/>
      </g>
    </symbol>

    <symbol id='email' viewBox="0 0 512 512">
      <g>
        <g>
          <polygon points="0,97.808 0,414.192 180.789,256 		"/>
        </g>
      </g>
      <g>
        <g>
          <polygon points="22.64,76 257,281.063 491.362,76 		"/>
        </g>
      </g>
      <g>
        <g>
          <polygon points="308.431,275.933 257,320.937 205.569,275.933 22.638,436 491.368,436 		"/>
        </g>
      </g>
      <g>
        <g>
          <polygon points="331.213,256 512,414.187 512,97.81 		"/>
        </g>
      </g>
    </symbol>

    <symbol id='check' viewBox="0 0 2409.4 2409.4">
      <g>
        <g>
          <polygon points="1204.7,899.2 748.7,899.2 748.7,940.2 1204.7,940.2"/>
          <polygon points="1204.7,1550.2 748.7,1550.2 748.7,1591.2 1204.7,1591.2"/>
          <polygon points="1204.7,1245.2 748.7,1245.2 748.7,1286.2 1204.7,1286.2"/>
          <polygon points="1588.7,785.2 1448.7,951.2 1354.7,839.2 1323.7,865.2 1422.7,982.2 1448.7,1014.2 1619.7,811.2"/>
          <polygon points="675.7,1774.2 675.7,635.2 634.7,635.2 634.7,1774.2"/>
          <polygon points="1774.7,1774.2 1774.7,635.2 1733.7,635.2 1733.7,1774.2"/>
          <polygon points="634.7,675.2 1774.7,675.2 1774.7,635.2 634.7,635.2"/>
          <polygon points="634.7,1774.2 1774.7,1774.2 1774.7,1734.2 634.7,1734.2"/>
          <g>
            <path d="M1330.7,1294.2l12-11c27,18,27,21,61,21c32,0,62-35,63-73h17c4,42,31,69,75,69c20,0,31-10,44-17l10,11c-3,9-14,15-17,35
              c-7,37,14,72,46,81c19,6,18-3,18,22c-11,0-19,2-27,5c-15,6-27,19-35,33c-6,11-7,21-7,35c0,19,10,32,18,44l-12,11
              c-21-11-40-22-73-8c-20,8-38,31-40,56h-17c-1-50-55-81-99-61c-9,5-12,8-20,13l-12-11c15-25,25-41,12-75c-9-24-34-42-65-42v-17
              c37-9,67-23,67-73C1349.7,1320.2,1339.7,1307.2,1330.7,1294.2z M1399.7,1267.2c-31,0-43-27-59-27c-14,0-52,42-52,48
              c0,30,44,44,16,78c-5,6-11,9-21,11c-40,9-37,2-37,61c0,44,40,18,61,40c27,31-13,50-13,75c0,10,39,49,50,49c20,0,30-25,51-25
              c49,0,25,66,54,66h55c5,0,10-7,12-10c2-5,2-13,3-18c3-13,6-22,16-28c30-18,43,15,63,15c14,0,52-40,52-51c0-16-41-44-14-72
              c21-21,60-4,60-32v-48c0-24-31-17-48-26c-9-5-15-11-18-21c-3-12,1-20,7-28c11-17,28-29,9-49c-8-7-31-35-42-35c-16,0-29,23-50,23
              c-50,0-24-68-52-68c-72,0-64-7-73,39C1426.7,1250.2,1416.7,1267.2,1399.7,1267.2z"/>
            <path d="M1468.7,1369.2c63,0,71,78,22,97c-40,15-82-23-65-66C1430.7,1385.2,1449.7,1369.2,1468.7,1369.2z M1558.7,1420.2
              c0-103-135-115-166-36c-22,55,10,110,60,120c28,5,53-1,74-18C1545.7,1471.2,1558.7,1448.2,1558.7,1420.2z"/>
          </g>
        </g>
      </g>
    </symbol>

    <symbol id='doc' viewBox="0 0 2409.4 2409.4">
      <g>
        <g>
          <path fill='none' d="M1223.1,1550.1l-14-79l199-238v-598h-773v1140h773v-352l-106,127H1223.1z M676.1,676.1h692v40h-692V676.1z
            M676.1,757.1h692v41h-692V757.1z M676.1,838.1h692v41h-692V838.1z M676.1,919.1h692v41h-692V919.1z M676.1,1001.1h692v40h-692
            V1001.1z M676.1,1082.1h692v41h-692V1082.1z M676.1,1163.1h692v41h-692V1163.1z M676.1,1244.1h346v41h-346V1244.1z M712.1,1729.1
            c-14.9,0-27-12.1-27-27s12.1-27,27-27s27,12.1,27,27S727,1729.1,712.1,1729.1z M1171.1,1550.1h-495v-41h495V1550.1z"/>
          <circle cx="712.1" cy="1702.1" r="27"/>
          <rect x="676.1" y="1001.1" width="692" height="40"/>
          <rect x="676.1" y="1082.1" width="692" height="41"/>
          <rect x="676.1" y="1163.1" width="692" height="41"/>
          <rect x="676.1" y="1244.1" width="346" height="41"/>
          <rect x="676.1" y="1509.1" width="495" height="41"/>
          <rect x="676.1" y="676.1" width="692" height="40"/>
          <rect x="676.1" y="757.1" width="692" height="41"/>
          <rect x="676.1" y="838.1" width="692" height="41"/>
          <rect x="676.1" y="919.1" width="692" height="41"/>
          <path d="M1596.1,1104.1c-26-21-64-18-86,8l-24,28l-26,32l-11,13v-591h-855v1221h855v-441l105-124l26-31l24-29
            C1625.1,1164.1,1622.1,1126.1,1596.1,1104.1z M1408.1,1775.1h-773v-1140h773v598l-199,238l14,79h79l106-127V1775.1z
            M1449.1,1311.1l-41,49l-125,149h-26l-5-26l239-285l31,26L1449.1,1311.1z M1573.1,1164.1l-24,29l-32-26l24-29c8-9,20-10,29-3
            C1579.1,1143.1,1580.1,1155.1,1573.1,1164.1z"/>
          <rect x="1774.7" y="594.6" width="40.6" height="1220.7"/>
        </g>
      </g>
    </symbol>

    <symbol id='hands' viewBox="0 0 2409.4 2409.4">
      <g>
        <g>
          <rect x="594.4" y="1733.4" width="1220.7" height="40.6"/>
          <g>
            <path d="M726.2,1200.4c0,55,22,65,68,111l62,62c6,6,14,17,24,17c11,0,22-10,22-25c0-16-54-64-67-77c-24-23-65-56-65-81
              c0-23,22-44,44-44c21,0,32,15,43,26c12,12,23,23,35,35c42,42,78,58,139,68c25,5,37,4,56,14c29,15,49,47,49,90v251h-190v-112
              c0-17-25-25-39-32c-16-8-31-15-47-23c-70-36-115-57-152-131c-16-33-26-70-26-118v-284c0-64,88-64,88,0v178c0,6-2,6-5,8
              C745.2,1151.4,726.2,1168.4,726.2,1200.4z M638.2,936.4v319c0,57,25,114,54,155c4,6,11,15,16,20c20,20,26,29,55,49
              c16,11,125,68,139,71v119c1,13,7,22,20,22h238c11,0,20-9,20-20v-290c0-41-24-79-52-102c-41-33-67-23-119-38
              c-114-32-112-122-195-122v-183c0-40-41-81-81-81h-13C679.2,855.4,638.2,896.4,638.2,936.4z"/>
            <path d="M1644.2,1133.4c-3-2-5-2-5-8v-178c0-64,88-64,88,0v284c0,48-10,85-26,118c-37,74-82,95-152,131c-16,8-31,15-47,23
              c-14,7-39,15-39,32v112h-190v-251c0-43,20-75,49-90c19-10,31-9,56-14c61-10,97-26,139-68c12-12,23-23,35-35c11-11,22-26,43-26
              c22,0,44,21,44,44c0,25-41,58-65,81c-13,13-67,61-67,77c0,15,11,25,22,25c10,0,18-11,24-17l62-62c46-46,68-56,68-111
              C1683.2,1168.4,1664.2,1151.4,1644.2,1133.4z M1689.2,855.4h-13c-40,0-81,41-81,81v183c-83,0-81,90-195,122c-52,15-78,5-119,38
              c-28,23-52,61-52,102v290c0,11,9,20,20,20h238c13,0,19-9,20-22v-119c14-3,123-60,139-71c29-20,35-29,55-49c5-5,12-14,16-20
              c29-41,54-98,54-155v-319C1771.2,896.4,1730.2,855.4,1689.2,855.4z"/>
          </g>
          <path d="M1051.4,1106.4c0-69,36-126,89-149c46-19,84-19,129,0c53,23,90,80,90,149v57h-308V1106.4z M1117.4,767.4
            c0-33,21-67,52-80c24-11,48-11,72,0c7,3,21,13,26,17c43,44,28,119-26,143C1178.4,874.4,1117.4,826.4,1117.4,767.4z M1073.4,756.4
            c0,26,0,42,11,67c16,34,49,62,87,72l12,4c-52,12-77,16-121,60c-67,66-55,139-55,228c0,11,9,20,19,20h357c11,0,20-9,20-20
            c0-86,11-163-55-227c-25-25-49-42-84-53c-11-3-24-5-37-8c8-5,66-11,97-75c26-53,11-124-32-157c-36-28-51-32-98-32
            c-14,0-37,7-47,12c-20,10-36,24-49,41C1085.4,706.4,1073.4,733.4,1073.4,756.4z"/>
        </g>
      </g>
    </symbol>

    <symbol id='location' viewBox="0 0 2409.4 2409.4">
      <g>
        <g>
          <path d="M1204.2,614.7c-163,0-295,132-295,295c0,295,197,394,295,590c99-196,296-295,296-590
            C1500.2,746.7,1367.2,614.7,1204.2,614.7z M1204.4,1051.4c-78.2,0-141.9-63.1-141.9-141.9c0-78.8,63.7-142.4,141.9-142.4
            c78.8,0,142.4,63.7,142.4,142.4C1346.9,988.3,1283.2,1051.4,1204.4,1051.4z"/>
        </g>
        <polygon points="905.2,1204.7 948.2,1204.7 971.2,1245.7 929.2,1245.7 635.2,1754.7 1774.2,1754.7 1774.2,1245.7 1437.2,1245.7 
          1461.2,1204.7 1815.2,1204.7 1815.2,1794.7 594.2,1794.7 594.2,1743.7 			"/>
        <rect x="814.2" y="1673.7" width="924.9" height="40.6"/>
      </g>
    </symbol>

    <symbol id='magnifier' viewBox="0 0 2409.4 2409.4">
      <g>
        <g>
          <path d="M1814.9,1789.1l-217.8-260.4c-8.9,10.7-18.1,21-27.8,30.9l214.6,255.5L1814.9,1789.1z"/>
          <rect x="594.5" y="594.3" width="40.6" height="1220.7"/>
          <path style="stroke:#000000;stroke-width:2.3619;" d="M1584.9,1514.1l12.2,14.6c73-88,116.8-200.8,116.8-323.6c0-281-228-509-509-509s-509,228-509,509
            c0,280,228,508,509,508c142.8,0,271.9-58.9,364.4-153.5l-16.4-19.5L1584.9,1514.1z M1496.9,1570.1c-12,9-24,19-37,27
            c0-0.2,0-0.3,0-0.5c-73.4,47.7-161,75.5-255,75.5c-94,0-181.6-27.7-255-75.5c0,0.2,0,0.3,0,0.5c-13-8-25-18-37-27
            c0-0.1,0-0.1,0-0.2c-107.2-85.6-176-217.2-176-364.8c0-259,210-468,468-468s468,209,468,468c0,147.7-68.8,279.3-176,364.8
            C1496.9,1570,1496.9,1570.1,1496.9,1570.1z"/>
          <circle style="stroke:#000000;stroke-width:2.3619;" cx="1485.9" cy="923.1" r="27"/>
          <path style="stroke:#000000;stroke-width:2.3619;" d="M1584.9,1514.1l-32,26l16.4,19.5c9.7-9.9,19-20.2,27.8-30.9L1584.9,1514.1z"/>
          <path style="stroke:#000000;stroke-width:2.3619;" d="M912.9,1570.1c12,9,24,19,37,27c0-0.2,0-0.3,0-0.5c-12.8-8.3-25.1-17.2-37-26.7
            C912.9,1570,912.9,1570.1,912.9,1570.1z"/>
          <path style="stroke:#000000;stroke-width:2.3619;" d="M1032.9,1311.1c-7-5-14-10-21-15c-49,66-89,145.9-99,273.8c11.9,9.5,24.2,18.4,37,26.7
            c1.1-116.7,26-193.6,61-253.5C1017.9,1332.1,1024.9,1321.1,1032.9,1311.1z"/>
          <path style="stroke:#000000;stroke-width:2.3619;" d="M1459.9,1597.1c13-8,25-18,37-27c0-0.1,0-0.1,0-0.2c-11.9,9.5-24.2,18.4-37,26.7
            C1459.9,1596.8,1459.9,1597,1459.9,1597.1z"/>
          <path style="stroke:#000000;stroke-width:2.3619;" d="M1376.9,1311.1c46.9,63.9,81.9,146.8,83,285.5c12.8-8.3,25.1-17.2,37-26.7c-10-127.9-50-207.9-99-273.8
            C1390.9,1301.1,1383.9,1306.1,1376.9,1311.1z"/>
          <path style="stroke:#000000;stroke-width:2.3619;" d="M1204.9,939.1c-98,0-177,79-177,177s79,177,177,177s177-79,177-177S1302.9,939.1,1204.9,939.1z
            M1204.9,1252.1c-75,0-137-61-137-136c0-76,62-137,137-137s137,61,137,137C1341.9,1191.1,1279.9,1252.1,1204.9,1252.1z"/>
        </g>
      </g>
    </symbol>

    <symbol id='medal' viewBox="0 0 2409.4 2409.4">
      <g>
        <g>
          <path fill='none' d="M1000.9,1774.2h774v-1139h-774C1000.9,1014.2,1000.9,1394.2,1000.9,1774.2z M1733.9,1707.2l-70-59l-103,86
            l-102-86l-71,59v-385c11,16,25,30,40,42v258l2-2l2-2l2-2l2-1l2-2l2-2l2-2l2-1l2-2l3-2l2-2l2-1l4-4l2-1l102-86l133,112v-258
            c15-12,29-26,40-42V1707.2z M1560.9,1371.2c-96,0-173-77-173-173c0-95,77-173,173-173s173,78,173,173
            C1733.9,1294.2,1656.9,1371.2,1560.9,1371.2z M1041.9,675.2h692v41h-692V675.2z M1041.9,756.2h692v41h-692V756.2z M1041.9,838.2
            h692v40h-692V838.2z M1068.9,912.2c14.9,0,27,12.1,27,27s-12.1,27-27,27s-27-12.1-27-27S1054,912.2,1068.9,912.2z"/>
          <polygon fill='none' points="1488.9,1622.2 1560.9,1682.2 1632.9,1622.2 1560.9,1562.2 			"/>
          <circle cx="1068.9" cy="939.2" r="27"/>
          <rect x="1041.9" y="756.2" width="692" height="41"/>
          <rect x="1041.9" y="838.2" width="692" height="40"/>
          <rect x="1041.9" y="675.2" width="692" height="41"/>
          <path d="M960.9,594.2c0,407,0,814,0,1221h854v-1221H960.9z M1774.9,1774.2h-774c0-380,0-760,0-1139h774V1774.2z"/>
          <rect x="594.5" y="594.2" width="40.6" height="1220.7"/>
          <path d="M1560.9,1025.2c-96,0-173,78-173,173c0,96,77,173,173,173s173-77,173-173C1733.9,1103.2,1656.9,1025.2,1560.9,1025.2z
            M1560.9,1332.2c-74,0-133-60-133-134c0-73,59-133,133-133s133,60,133,133C1693.9,1272.2,1634.9,1332.2,1560.9,1332.2z"/>
          <path d="M1693.9,1364.2v258l-133-112l-102,86l-2,1l-4,4l-2,1l-2,2l-3,2l-2,2l-2,1l-2,2l-2,2l-2,2l-2,1l-2,2l-2,2l-2,2v-258
            c-15-12-29-26-40-42v385l71-59l102,86l103-86l70,59v-385C1722.9,1338.2,1708.9,1352.2,1693.9,1364.2z M1560.9,1682.2l-72-60
            l72-60l72,60L1560.9,1682.2z"/>
        </g>
      </g>
    </symbol>

    <symbol id='people' viewBox="0 0 2409.4 2409.4">
      <g>
        <g>
          <path fill='none' d="M1459.2,1510.4h-509c0-110.5,21.9-185,54.3-244.2c36.5-30.9,60.4-76.3,62.6-127.3
            c32.7,40,82.5,65.4,138.2,65.4c55.6,0,105.6-25.9,138.1-66.5c1.8,51.2,25.3,96.8,61.5,127.9
            C1437.3,1324.6,1459.2,1399.6,1459.2,1510.4z"/>
          <path d="M1182.2,1591.4h-38c0,7,0,15,0,22h-509c0-117,25-194,61-255c6-11,14-22,21-32c-7-5-14-10-21-15c-57,77-102,174-102,343
            h591C1185.2,1632.4,1184.2,1611.4,1182.2,1591.4z"/>
          <path d="M1713.2,1311.4c-7,5-14,10-21,15c47,65,82,148,82,287h-509c0-7,0-15,0-22h-38c-2,20-3,41-3,63h591
            C1815.2,1485.4,1770.2,1388.4,1713.2,1311.4z"/>
          <path d="M1520.2,954.4c-56,0-105.8,25.8-138.2,66.2c-3.6-94.8-82.1-170.2-176.8-170.2c-95.5,0-173.8,75-177.8,169.4
            c-32.7-40-82.5-65.4-138.2-65.4c-97,0-177,79-177,177s80,177,177,177c24.8,0,48.5-5.1,70-14.2c-30.2,63.9-50,144.3-50,256.2h591
            c0-111.9-19.8-192.3-49.6-256.1c21.4,9.1,44.9,14.1,69.6,14.1c98,0,177-79,177-177S1618.2,954.4,1520.2,954.4z M1205.2,891.4
            c75,0,136,61,136,136s-61,137-136,137c-76,0-137-62-137-137S1129.2,891.4,1205.2,891.4z M889.2,1267.4c-75,0-136-61-136-136
            s61-137,136-137c76,0,137,62,137,137S965.2,1267.4,889.2,1267.4z M1459.2,1510.4h-509c0-110.5,21.9-185,54.3-244.2
            c36.5-30.9,60.4-76.3,62.6-127.3c32.7,40,82.5,65.4,138.2,65.4c55.6,0,105.6-25.9,138.1-66.5c1.8,51.2,25.3,96.8,61.5,127.9
            C1437.3,1324.6,1459.2,1399.6,1459.2,1510.4z M1520.2,1267.4c-76,0-137-61-137-136s61-137,137-137c75,0,136,62,136,137
            S1595.2,1267.4,1520.2,1267.4z"/>
          <rect x="594.2" y="1774.4" width="1220.7" height="40.6"/>
          <rect x="594.2" y="594.4" width="1220.7" height="40.6"/>
          <rect x="594.2" y="1693.4" width="1220.7" height="40.6"/>
        </g>
      </g>
    </symbol>

    <symbol id='search' viewBox="0 0 283.5 283.5">
      <g>
        <g fill='currentColor'>
          <path d="M166.9,36.5c-44.7,0-81,36.3-81,81c0,20,7.3,38.4,19.4,52.6l-67.1,62.5c-3.4,3.1-3.6,8.4-0.4,11.8
            c1.6,1.8,3.9,2.7,6.1,2.7c2,0,4.1-0.7,5.7-2.2l67.8-63.2c13.7,10.5,30.8,16.8,49.4,16.8c44.6,0,81-36.3,81-81
            C247.9,72.8,211.5,36.5,166.9,36.5z M166.9,182.8c-36.1,0-65.4-29.3-65.4-65.4c0-36.1,29.3-65.4,65.4-65.4
            c36.1,0,65.4,29.3,65.4,65.4C232.3,153.5,203,182.8,166.9,182.8z"/>
        </g>
        <g fill='currentColor'>
          <path d="M166.9,176.3c-32.4,0-58.8-26.4-58.8-58.8c0-32.4,26.4-58.8,58.8-58.8c32.4,0,58.8,26.4,58.8,58.8
            C225.7,149.9,199.3,176.3,166.9,176.3z M166.9,63.4c-29.8,0-54,24.2-54,54c0,29.8,24.2,54,54,54s54-24.2,54-54
            C220.9,87.6,196.7,63.4,166.9,63.4z"/>
        </g>
      </g>
    </symbol>

    <symbol id='success' viewBox="0 0 477.867 477.867">
      <g>
        <g>
          <path d="M238.933,0C106.974,0,0,106.974,0,238.933s106.974,238.933,238.933,238.933s238.933-106.974,238.933-238.933
            C477.726,107.033,370.834,0.141,238.933,0z M238.933,443.733c-113.108,0-204.8-91.692-204.8-204.8s91.692-204.8,204.8-204.8
            s204.8,91.692,204.8,204.8C443.611,351.991,351.991,443.611,238.933,443.733z"/>
        </g>
      </g>
      <g>
        <g>
          <path d="M370.046,141.534c-6.614-6.388-17.099-6.388-23.712,0v0L187.733,300.134l-56.201-56.201
            c-6.548-6.78-17.353-6.967-24.132-0.419c-6.78,6.548-6.967,17.353-0.419,24.132c0.137,0.142,0.277,0.282,0.419,0.419
            l68.267,68.267c6.664,6.663,17.468,6.663,24.132,0l170.667-170.667C377.014,158.886,376.826,148.082,370.046,141.534z"/>
        </g>
      </g>
    </symbol>
    <symbol id='error' viewBox="0 0 512 512">
      <g>
        <path d="M507.113,428.415L287.215,47.541c-6.515-11.285-18.184-18.022-31.215-18.022c-13.031,0-24.7,6.737-31.215,18.022
          L4.887,428.415c-6.516,11.285-6.516,24.76,0,36.044c6.515,11.285,18.184,18.022,31.215,18.022h439.796
          c13.031,0,24.7-6.737,31.215-18.022C513.629,453.175,513.629,439.7,507.113,428.415z M481.101,449.441
          c-0.647,1.122-2.186,3.004-5.202,3.004H36.102c-3.018,0-4.556-1.881-5.202-3.004c-0.647-1.121-1.509-3.394,0-6.007
          L250.797,62.559c1.509-2.613,3.907-3.004,5.202-3.004c1.296,0,3.694,0.39,5.202,3.004L481.1,443.434
          C482.61,446.047,481.748,448.32,481.101,449.441z"/>
        <rect x="240.987" y="166.095" width="30.037" height="160.197"/>
        <circle cx="256.005" cy="376.354" r="20.025"/>
      </g>
    </symbol>
  </defs>
</svg>