<svg version="1.1" xmlns="http://www.w3.org/2000/svg">
  <defs>
    <symbol id='vk' viewBox="0 0 283.5 283.5">
      <g>
        <path fill='none' stroke='currentColor' stroke-width='8' stroke-miterlimit='10' d="M229,257.9H54.4c-15.9,0-28.8-12.9-28.8-28.8V54.4c0-15.9,12.9-28.8,28.8-28.8H229
          c15.9,0,28.8,12.9,28.8,28.8V229C257.9,244.9,245,257.9,229,257.9z"/>
        <path fill='currentColor' d="M157.6,115.3c0,6.8,0,13.6,0,20.4c0,1.3,0.2,2.7,0.6,3.9c0.7,2.2,2.2,2.8,4.4,2.1c2-0.6,3.4-1.9,4.9-3.2
          c4.3-3.8,7.7-8.4,11-13.2c6.8-9.9,12.4-20.4,17.1-31.4c1.1-2.6,2.7-4.8,5.5-5.7c1.1-0.3,2.2-0.5,3.4-0.6c7.1,0,14.1,0,21.2,0
          c0.8,0,1.7,0.1,2.5,0.3c3,0.7,4.4,2.7,3.8,5.7c-0.6,3.2-1.8,6.1-3.2,9c-3.9,8-8.6,15.5-13.4,22.9c-3.7,5.6-7.5,11.1-11.2,16.7
          c-0.7,1-1.3,2.1-1.8,3.2c-0.7,1.4-0.6,2.8,0.1,4.1c0.6,1.1,1.3,2.1,2.2,3.1c5.7,6.1,11.4,12.1,17,18.2c4.1,4.5,8,9.3,11.2,14.6
          c1.3,2.2,2.6,4.4,3,7c0.6,4-1.3,6.5-5.4,7c-0.9,0.1-1.7,0.2-2.6,0.2c-6.5,0-12.9-0.1-19.4,0c-3.5,0-6.5-1-8.9-3.4
          c-2.6-2.6-5.1-5.3-7.6-8c-5.1-5.6-10.4-11.2-16.3-15.9c-2.7-2.2-5.5-4.2-8.8-5.5c-1.9-0.8-3.9-1-5.9-0.6c-1.4,0.2-2.4,1-2.7,2.4
          c-0.3,1.1-0.5,2.3-0.5,3.5c-0.1,6.3,0,12.6-0.1,18.9c0,0.8,0,1.6-0.1,2.4c-0.2,2.3-1.4,3.9-3.4,4.8c-2.2,0.9-4.5,1.2-6.8,1.4
          c-13,0.9-25-2.5-36.2-8.8c-12.2-6.8-22-16.3-30.1-27.6c-9.2-12.9-17.5-26.3-24.1-40.7c-3.4-7.4-6.4-15.1-8.4-23
          c-0.5-2-0.8-4-0.9-6c-0.1-3.2,1.6-5.1,4.8-5.5c0.8-0.1,1.6-0.2,2.4-0.2c6.7,0,13.4,0,20.1,0c0.9,0,1.8,0.1,2.7,0.2
          c2.2,0.4,3.9,1.6,4.9,3.6c0.9,1.7,1.6,3.4,2.3,5.2c4.8,13.6,10.9,26.6,18.7,38.8c2.6,4.1,5.5,8.1,9,11.5c1.1,1.1,2.4,2,3.7,3
          c0.5,0.4,1.2,0.6,1.8,0.7c1.9,0.4,3.4-0.4,3.8-2.2c0.4-1.5,0.6-3.1,0.6-4.7c0.1-10.3,0.1-20.6,0-31c-0.1-5.7-1.8-10.8-5.5-15.2
          c-0.6-0.7-1.2-1.5-1.7-2.3c-2.2-3.4-0.1-7.3,3.9-7.6c0.3,0,0.7,0,1,0c10.4,0,20.8,0,31.2,0c4.3,0,6.1,1.6,6.3,5.9
          c0.1,5.3,0.1,10.5,0.1,15.8C157.6,111.4,157.6,113.4,157.6,115.3z"/>
      </g>
    </symbol>
    <symbol id='ok' viewBox="0 0 283.5 283.5">
      <g>
        <g fill='currentColor'>
          <path d="M121.8,184.8c-4.6-1.5-9.2-2.8-13.6-4.7c-5-2.2-9.9-4.7-14.5-7.5c-5.3-3.2-7.6-9.2-6.2-15.2c1.3-5.6,6-10,11.9-10.9
            c3.8-0.6,7.3,0.6,10.6,2.6c8.6,5.4,18.1,8.2,28.3,8.7c13.2,0.8,25.3-2.5,36.6-9.4c6.8-4.1,15.3-2.1,19.5,4.5
            c4.2,6.6,2.4,15.3-4.4,19.6c-8.2,5.3-17.2,9-26.7,11.4c-0.5,0.1-1,0.3-1.6,0.4c0.4,0.5,0.8,0.9,1.1,1.2
            c8.6,8.6,17.2,17.2,25.8,25.8c5.8,5.8,5.9,14.7,0.3,20.4c-5.6,5.7-14.6,5.6-20.4-0.2c-8.6-8.6-17.2-17.2-25.9-25.9
            c-0.2-0.2-0.3-0.4-0.5-0.8c-0.6,0.5-1,0.9-1.3,1.3c-8.3,8.3-16.7,16.7-25,25c-5.1,5-11,6.1-17.3,3.2c-8.1-3.8-10.4-15.6-4.2-22.1
            c7.5-7.7,15.2-15.3,22.8-22.9C118.6,188,120.2,186.3,121.8,184.8z"/>
          <path d="M190.5,96.1c-0.3,28.4-24,50.3-51.9,48.5c-26.1-1.6-46.4-23.4-45.6-50c0.8-27.5,23.9-49,51.7-47.3
            C170.6,49,190.4,70.4,190.5,96.1z M121.6,96c-0.1,10.8,8.5,20.2,20.1,20.2c11.8,0,20.2-9.3,20.2-20.1c0.1-11-9.1-20.3-20.1-20.2
            C130.6,75.9,121.6,84.8,121.6,96z"/>
        </g>
        <path fill='none' stroke='currentColor' stroke-width='8' stroke-miterlimit='10' d="M229,257.9H54.4c-15.9,0-28.8-12.9-28.8-28.8V54.4c0-15.9,12.9-28.8,28.8-28.8H229
          c15.9,0,28.8,12.9,28.8,28.8V229C257.9,244.9,245,257.9,229,257.9z"/>
      </g>
    </symbol>
    <symbol id='instagram' viewBox="0 0 283.5 283.5">
      <g>
        <path fill='none' stroke='currentColor' stroke-width='8' stroke-miterlimit='10' d="M229,257.9H54.4c-15.9,0-28.8-12.9-28.8-28.8V54.4c0-15.9,12.9-28.8,28.8-28.8H229
          c15.9,0,28.8,12.9,28.8,28.8V229C257.9,244.9,245,257.9,229,257.9z"/>
        <g fill='currentColor'>
          <circle cx="191.5" cy="92.3" r="11"/>
          <path d="M142.5,95.4c-25.5,0-46.3,20.8-46.3,46.3c0,25.5,20.8,46.3,46.3,46.3c25.5,0,46.3-20.8,46.3-46.3
            C188.8,116.2,168,95.4,142.5,95.4z M142.5,171.4c-16.4,0-29.7-13.3-29.7-29.7s13.3-29.7,29.7-29.7c16.4,0,29.7,13.3,29.7,29.7
            S158.9,171.4,142.5,171.4z"/>
          <path d="M179.3,235.7h-75.1c-31.1,0-56.5-25.3-56.5-56.5v-75.1c0-31.1,25.3-56.5,56.5-56.5h75.1c31.1,0,56.5,25.3,56.5,56.5v75.1
            C235.7,210.4,210.4,235.7,179.3,235.7z M104.2,65.4c-21.4,0-38.8,17.4-38.8,38.8v75.1c0,21.4,17.4,38.8,38.8,38.8h75.1
            c21.4,0,38.8-17.4,38.8-38.8v-75.1c0-21.4-17.4-38.8-38.8-38.8H104.2z"/>
        </g>
      </g>
    </symbol>
    <symbol id='geo' viewBox="0 0 283.5 283.5">
      <g>
        <path fill='none' stroke='none' stroke-width='8' stroke-miterlimit='10' d="M229,257.9H54.4c-15.9,0-28.8-12.9-28.8-28.8V54.4c0-15.9,12.9-28.8,28.8-28.8H229
          c15.9,0,28.8,12.9,28.8,28.8V229C257.9,244.9,245,257.9,229,257.9z"/>
        <g>
          <path fill='currentColor' d="M141.7,44.6c-39.5,0-71.5,36.7-71.5,76.2c0,48.7,55.8,101.8,68.8,116.9c1.4,1.7,4,1.7,5.4,0c13-15.1,68.8-65,68.8-116.9
            C213.3,81.2,181.2,44.6,141.7,44.6z M141.7,145.3c-16.1,0-29.1-13-29.1-29.1s13-29.1,29.1-29.1s29.1,13,29.1,29.1
            S157.8,145.3,141.7,145.3z"/>
        </g>
      </g>
    </symbol>
    <symbol id='parking' viewBox="0 0 283.5 283.5">
      <g>
        <path fill='none' stroke='none' stroke-width='8' stroke-miterlimit='10'  d="M229,257.9H54.4c-15.9,0-28.8-12.9-28.8-28.8V54.4c0-15.9,12.9-28.8,28.8-28.8H229
          c15.9,0,28.8,12.9,28.8,28.8V229C257.9,244.9,245,257.9,229,257.9z"/>
        <path fill='currentColor' d="M131.9,44.9c49.3,0,79.5,20.2,79.5,62.4c0,44.8-31.9,65.2-76.1,65.2h-15.7c-3.5,0-6.4,2.9-6.4,6.4v53.2
          c0,3.5-2.9,6.4-6.4,6.4H78.4c-3.5,0-6.4-2.9-6.4-6.4V51.3c0-3.5,2.9-6.4,6.4-6.4H131.9z M131.9,142.3c22.7,0,37-8.7,37-35
          c0-22.7-13.4-32.8-37.5-32.8h-11.8c-3.5,0-6.4,2.9-6.4,6.4v54.9c0,3.5,2.9,6.4,6.4,6.4H131.9z"/>
      </g>
    </symbol>
    <symbol id='phone' viewBox="0 0 283.5 283.5">
      <g>
        <path fill='none' stroke='none' stroke-width='8' stroke-miterlimit='10' d="M229,257.9H54.4c-15.9,0-28.8-12.9-28.8-28.8V54.4c0-15.9,12.9-28.8,28.8-28.8H229
          c15.9,0,28.8,12.9,28.8,28.8V229C257.9,244.9,245,257.9,229,257.9z"/>
        <path fill='currentColor' d="M216.3,169.5c-8.3-4.7-19.1-10-28.8-6.2c-7.5,2.9-12.3,14.1-17.1,19.8c-2.5,2.9-5.5,3.4-9.3,1.9
          c-28.1-10.7-49.7-28.5-65.2-53.1c-2.6-3.8-2.2-6.8,1-10.4c4.7-5.2,10.6-11.2,11.8-18.3c1.3-7.1-2.2-15.3-5.3-21.6
          c-3.9-8-8.3-19.5-16.8-24.1c-7.8-4.2-18.1-1.8-25,3.5c-12,9.3-17.8,23.8-17.6,38.2c0,4.1,0.6,8.2,1.6,12.1
          c2.4,9.5,7,18.4,12.2,26.8c3.9,6.4,8.2,12.5,12.8,18.5c15,19.4,33.8,36.3,55.4,48.9c10.8,6.3,22.5,11.8,34.6,15.6
          c13.5,4.3,25.6,8.7,40.2,6c15.3-2.8,30.4-11.8,36.5-25.8c1.8-4.2,2.7-8.8,1.7-13.2C236.9,179.3,224,173.9,216.3,169.5z"/>
      </g>
    </symbol>
    <symbol id='scheme' viewBox="0 0 283.5 283.5">
      <g>
        <path fill='none' stroke='none' stroke-width='8' stroke-miterlimit='10' d="M229,257.9H54.4c-15.9,0-28.8-12.9-28.8-28.8V54.4c0-15.9,12.9-28.8,28.8-28.8H229
          c15.9,0,28.8,12.9,28.8,28.8V229C257.9,244.9,245,257.9,229,257.9z"/>
        <g fill='currentColor'>
          <path d="M227.2,41.6H56.3c-11,0-20,9-20,20v160.2c0,11,9,20,20,20h170.9c11,0,20-9,20-20V61.6C247.2,50.6,238.2,41.6,227.2,41.6z
            M231.2,221.8c0,2.2-1.8,4-4,4H56.3c-2.2,0-4-1.8-4-4V61.6c0-2.2,1.8-4,4-4h170.9c2.2,0,4,1.8,4,4V221.8z"/>
          <path d="M206.5,65.9H77c-7,0-12.6,5.7-12.6,12.6V119c0,7,5.7,12.6,12.6,12.6h62.7v16.7h-66c-1.1,0-2,0.9-2,2s0.9,2,2,2h13.5V170
            H77c-7,0-12.6,5.7-12.6,12.6v19.7c0,7,5.7,12.6,12.6,12.6h23.1c7,0,12.6-5.7,12.6-12.6v-19.7c0-7-5.7-12.6-12.6-12.6h-8.9v-17.7
            h48.5v1.3V170h-9.6c-7,0-12.6,5.7-12.6,12.6v19.7c0,7,5.7,12.6,12.6,12.6h23.1c7,0,12.6-5.7,12.6-12.6v-19.7
            c0-7-5.7-12.6-12.6-12.6h-9.6v-16.4v-1.3h49.2V170h-9.6c-7,0-12.6,5.7-12.6,12.6v19.7c0,7,5.7,12.6,12.6,12.6h23.1
            c7,0,12.6-5.7,12.6-12.6v-19.7c0-7-5.7-12.6-12.6-12.6h-9.6v-17.7h12.8c1.1,0,2-0.9,2-2s-0.9-2-2-2h-66v-16.7h62.7
            c7,0,12.6-5.7,12.6-12.6V78.6C219.1,71.6,213.4,65.9,206.5,65.9z M98.7,201H78.4v-17h20.4V201z M151.9,201h-20.4v-17h20.4V201z
            M205.1,201h-20.4v-17h20.4V201z M205.1,117.7H78.4V79.9h126.8V117.7z"/>
        </g>
      </g>
    </symbol>
    <symbol id='time' viewBox="0 0 283.5 283.5">
      <g>
        <path fill='none' stroke='none' stroke-width='8' stroke-miterlimit='10' d="M229,257.9H54.4c-15.9,0-28.8-12.9-28.8-28.8V54.4c0-15.9,12.9-28.8,28.8-28.8H229
          c15.9,0,28.8,12.9,28.8,28.8V229C257.9,244.9,245,257.9,229,257.9z"/>
        <path fill='currentColor' d="M143.5,47.4C90,46.4,46.4,90,47.4,143.5c0.9,50.4,42.1,91.6,92.5,92.5c53.5,1,97.1-42.6,96.1-96.1
          C235.1,89.5,194,48.4,143.5,47.4z M192.4,194.7c-1.9,2.7-5.7,2.8-7.8,0.5l-39.5-42.4c-0.3-0.3-0.6-0.4-1-0.3
          c-1,0.2-2.2,0.3-3.3,0.2c-5.6-0.4-10-5.2-10.1-10.8c-0.1-4,2-7.5,5.1-9.5c0.3-0.2,0.4-0.4,0.4-0.7V90.3c0-2.8,2.3-5,5-5h1
          c2.8,0,5,2.3,5,5v41.4c0,0.3,0.2,0.6,0.4,0.7c3.1,2,5.1,5.4,5.1,9.3c0,1.2-0.2,2.3-0.5,3.3c-0.1,0.3,0,0.6,0.2,0.9l39.4,42.3
          C193.4,190,193.7,192.7,192.4,194.7z"/>
      </g>
    </symbol>
  </defs>
</svg>