<svg version="1.1" xmlns="http://www.w3.org/2000/svg" width='1000' height='500' viewBox="60 0 1000 500"
	 style="enable-background:new 0 0 1000 500;">
	<style type="text/css">
		.st0{fill:#fff;}
	</style>
	<g>
		<g>
			<g>
				<g>
					<path class="st0" d="M637.5,315.6h-8.8l-4.4,25.3h-3.6l4.4-25.3h-8.8l0.5-3.1h21.3L637.5,315.6z"/>
					<path class="st0" d="M647.2,341.3c-1.8,0-3.4-0.5-4.7-1.3c-1.3-0.8-2.4-2.1-3.1-3.7c-0.8-1.6-1.2-3.4-1.3-5.4
						c-0.1-1.6,0.1-3.5,0.5-5.8c0.4-2.3,1.2-4.4,2.2-6.3c1.1-1.9,2.3-3.3,3.8-4.5c2-1.5,4.4-2.2,7-2.2c2.8,0.1,4.9,1,6.5,2.9
						c1.6,1.9,2.5,4.4,2.6,7.6c0.1,1.4-0.1,3.1-0.4,5.2c-0.3,2.1-0.9,4.1-1.8,5.9c-0.8,1.8-1.9,3.3-3.2,4.5
						C653.1,340.3,650.4,341.4,647.2,341.3z M657.2,323.5c0.1-2.6-0.4-4.5-1.3-5.9c-1-1.4-2.4-2.1-4.3-2.2c-1.7-0.1-3.3,0.4-4.7,1.4
						c-1.4,1-2.5,2.5-3.4,4.4c-0.9,2-1.4,4.5-1.7,7.5l-0.1,1.3c-0.1,2.5,0.4,4.5,1.4,6c1,1.4,2.4,2.2,4.3,2.2
						c2.5,0.1,4.5-0.8,6.1-2.7c1.6-1.8,2.7-4.4,3.2-7.7C657,326.1,657.1,324.7,657.2,323.5z"/>
					<path class="st0" d="M669.2,329.8l-1.9,11.1h-3.7l4.9-28.4l9.5,0c2.9,0,5.2,0.8,6.8,2.3c1.6,1.6,2.3,3.6,2,6.2
						c-0.2,2.7-1.3,4.9-3.2,6.4c-1.9,1.6-4.5,2.3-7.6,2.3L669.2,329.8z M669.7,326.8l6.3,0c2,0,3.6-0.5,4.9-1.5c1.3-1,2-2.4,2.2-4.2
						c0.2-1.6-0.1-2.9-1-3.9c-0.9-1-2.1-1.5-3.8-1.6l-6.7,0L669.7,326.8z"/>
					<path class="st0" d="M709.7,315.6h-13.2l-4.4,25.3h-3.7l4.9-28.4h16.9L709.7,315.6z"/>
					<path class="st0" d="M719,341.3c-1.8,0-3.4-0.5-4.7-1.3c-1.3-0.8-2.4-2.1-3.1-3.7c-0.8-1.6-1.2-3.4-1.3-5.4
						c-0.1-1.6,0.1-3.5,0.5-5.8c0.4-2.3,1.2-4.4,2.2-6.3c1.1-1.9,2.3-3.3,3.8-4.5c2-1.5,4.4-2.2,7-2.2c2.8,0.1,5,1,6.5,2.9
						c1.6,1.9,2.5,4.4,2.6,7.6c0.1,1.4-0.1,3.1-0.4,5.2c-0.3,2.1-0.9,4.1-1.8,5.9c-0.8,1.8-1.9,3.3-3.2,4.5
						C724.9,340.3,722.2,341.4,719,341.3z M729,323.5c0.1-2.6-0.4-4.5-1.3-5.9c-1-1.4-2.4-2.1-4.3-2.2c-1.7-0.1-3.3,0.4-4.7,1.4
						c-1.4,1-2.5,2.5-3.4,4.4c-0.9,2-1.4,4.5-1.7,7.5l-0.1,1.3c-0.1,2.5,0.4,4.5,1.4,6c1,1.4,2.4,2.2,4.3,2.2
						c2.5,0.1,4.5-0.8,6.1-2.7c1.6-1.8,2.7-4.4,3.2-7.7C728.8,326.1,728.9,324.7,729,323.5z"/>
					<path class="st0" d="M735.4,340.9l4.9-28.4l8.3,0c2.9,0,5.1,0.6,6.5,1.9c1.4,1.3,2.1,3.1,1.9,5.4c-0.2,2.7-1.9,4.8-5.1,6.1
						c1.3,0.5,2.2,1.3,2.9,2.5c0.6,1.2,0.9,2.5,0.8,4c-0.2,2.6-1.2,4.6-3.1,6.1c-1.9,1.5-4.3,2.3-7.2,2.3H735.4z M741.4,327.7
						l-1.8,10.2l5.8,0c1.8,0,3.2-0.5,4.4-1.4c1.2-0.9,1.9-2.2,2.1-3.8c0.2-1.5-0.1-2.7-0.8-3.6c-0.7-0.9-1.8-1.3-3.4-1.4
						L741.4,327.7z M741.9,324.7l5.3,0c1.6,0,3-0.4,4.2-1.3c1.1-0.8,1.8-2,2-3.5c0.2-1.4-0.1-2.4-0.8-3.1c-0.7-0.7-1.9-1.1-3.5-1.2
						l-5.6,0L741.9,324.7z"/>
					<path class="st0" d="M766.5,324.1l6,0c2.8,0,5,0.8,6.5,2.2c1.5,1.5,2.2,3.4,2,5.9c-0.2,2.6-1.3,4.7-3.2,6.3
						c-1.9,1.6-4.4,2.4-7.4,2.4h-10.5l4.9-28.4h3.7L766.5,324.1z M765.9,327.2l-1.9,10.7l6.4,0c1.8,0,3.4-0.5,4.6-1.5
						c1.2-1,2-2.4,2.2-4.1c0.2-1.5-0.1-2.7-0.9-3.6c-0.8-0.9-2-1.4-3.6-1.4L765.9,327.2z M786.5,340.9h-3.6l4.9-28.4h3.6
						L786.5,340.9z"/>
					<path class="st0" d="M815.5,312.6h3.8l-4.9,28.4h-3.6l3.8-21.6l-17.2,21.6h-3.8l4.9-28.4h3.7l-3.8,21.6L815.5,312.6z
						 M815.7,305.5c-0.2,1.6-0.8,2.9-1.9,3.9c-1.1,1-2.5,1.4-4.2,1.4c-1.6,0-2.9-0.5-3.8-1.5c-1-0.9-1.4-2.2-1.4-3.8l2.9,0
						c-0.1,1.9,0.7,2.9,2.4,2.9c0.9,0,1.6-0.3,2.2-0.8c0.5-0.5,0.9-1.2,1-2.1L815.7,305.5z"/>
					<path class="st0" d="M836,312.6h3.7l-4.4,25.3h13.5l4.4-25.3h3.6l-4.4,25.2h2.9l-2.1,10H850l1.2-6.8H831L836,312.6z"/>
					<path class="st0" d="M877.2,327.8h-11.9l-1.8,10h13.9l-0.5,3.1h-17.5l4.9-28.4h17.3l-0.5,3.1h-13.7l-1.6,9.1h11.9L877.2,327.8z
						"/>
					<path class="st0" d="M902.7,340.9h-3.7l2.3-13.1h-13.8l-2.3,13.1h-3.7l4.9-28.4h3.7l-2.1,12.2h13.8l2.1-12.2h3.7L902.7,340.9z"
						/>
					<path class="st0" d="M932.2,315.6h-8.8l-4.4,25.3h-3.6l4.4-25.3h-8.8l0.6-3.1h21.3L932.2,315.6z"/>
					<path class="st0" d="M937.6,329.8l-1.9,11.1H932l4.9-28.4l9.5,0c2.9,0,5.2,0.8,6.8,2.3c1.6,1.6,2.3,3.6,2,6.2
						c-0.2,2.7-1.3,4.9-3.2,6.4c-1.9,1.6-4.5,2.3-7.6,2.3L937.6,329.8z M938.2,326.8l6.3,0c2,0,3.6-0.5,4.9-1.5c1.3-1,2-2.4,2.2-4.2
						c0.2-1.6-0.1-2.9-1-3.9c-0.9-1-2.1-1.5-3.8-1.6l-6.7,0L938.2,326.8z"/>
				</g>
			</g>
			<g>
				<g>
					<path class="st0" d="M160.9,331.9c-0.1,0-0.1,0-0.2,0c-0.6-0.1-14.9-3.4-21.5-14.1c-3.1-5.1-3.9-11.1-2.3-17.7
						c-2.1-1.6-11.4-8.7-15.7-13.1c0.2,2.9,0.2,7.9-1.5,13.4c-2.3,7.8,0,12.1,0.1,12.2c0.2,0.3,0.1,0.7-0.2,1c-0.3,0.2-0.7,0.3-1,0
						c-0.5-0.4-13.5-10.7-14.9-24.3c-0.7-6.2,1.2-12.2,5.6-17.7c-1-2-5.1-9.9-6.9-16.3c-1.1,2.5-3.3,6.7-6.6,10.3
						c-4.4,4.7-6.8,9.2-7.3,13.7c0,0.3-0.3,0.6-0.6,0.7c-0.4,0-0.7-0.1-0.8-0.4c-0.3-0.7-8-17.5-2.4-31.6
						c2.6-6.5,7.6-11.4,14.8-14.4c0.1-2.4,0.4-12.5,1.6-18.5c-2,1.9-5.3,4.5-10,6.2c-8.1,2.9-12.3,5-15.7,9.5
						c-0.2,0.3-0.6,0.4-0.9,0.2c-0.3-0.1-0.5-0.4-0.5-0.8c0.1-0.8,2-20.9,15.1-31.4c6.1-4.9,13.6-6.9,22.5-5.9l5.3-6.8
						c-2.7,0.3-7.9,0.6-14.3-0.5c-8.5-1.4-13.7,0.5-15.5,1.5c-0.3,0.2-0.7,0.1-0.9-0.2c-0.2-0.3-0.3-0.6-0.1-0.9
						c0.2-0.3,21.6-33.5,50.4-16.6l7.4-4.3c-2.5-0.4-6.9-1.4-11.5-3.5c-6.8-3-14.4-2.6-15.4-2c-0.3,0.2-0.8,0.1-1-0.2
						c-0.2-0.3-0.2-0.7,0.1-1c0.6-0.6,15.7-14.9,33-14.6c8,0.2,15.2,3.5,21.4,9.9l19.5-7.7c0.1,0,0.2-0.1,0.3-0.1l16.8-0.7
						c0.2,0,0.6,0.2,0.7,0.4c0.1,0.3,0.3,0.6-1.5,3.3c-0.3,0.4-0.5,0.8-1,0.8c-11.1-0.7-18.4,4.8-20.1,6.2
						c0.9,2.7,4.3,15.8-7.3,24.6c-12.4,9.4-14.7,11.8-17,17.9c-0.1,0.3-0.4,0.5-0.7,0.5c-0.3,0-0.6-0.2-0.7-0.4
						c-0.3-0.6-6.7-14.2-2.6-25.8c1.3-3.6,3.5-6.7,6.6-9.1c-4.8,1.6-12.5,4.8-22.1,11c2.2,2.5,8.9,11.5,4.2,24.6
						c-4.7,13-4.5,13.8-3.5,17.3c0.1,0.5,0.3,1.1,0.5,1.8c0.1,0.3-0.1,0.6-0.3,0.8c-0.3,0.2-0.6,0.2-0.9,0c-0.2-0.1-20-13.8-14.7-33
						c-2.7,2.6-7.1,7.1-8.7,9.6c2.3,1.6,9.5,8,8.8,22.2c-0.8,15,2.4,16.9,2.4,16.9c0.4,0.2,0.5,0.6,0.4,1c-0.1,0.4-0.6,0.6-1,0.5
						c-0.2-0.1-17.8-6-20.2-19.7c-0.8,3.3-1.8,8.7-2.1,16.6c3.1-0.1,13.9,0.4,19.5,11c5.3,10,8.1,11.4,10.1,12.5
						c0.4,0.2,0.7,0.4,1.1,0.6c0.3,0.2,0.4,0.5,0.3,0.8c-0.1,0.3-0.3,0.5-0.6,0.6c-0.2,0-17.8,4.2-28.1-6c0.7,3,2.4,8.3,5.9,15
						c2.3-0.6,10.5-2.5,17.8,2c3,1.8,5.7,4.2,8.4,6.5c4.5,3.9,8.4,7.3,11.6,6.1c0.3-0.1,0.7,0,0.9,0.3c0.2,0.3,0.2,0.7-0.1,0.9
						c-0.3,0.3-7.1,8-22.3,4.3c2.4,2.3,6.5,5.9,9.8,8.1c2-1.5,10.1-6.9,20.9-3.9c2.6,0.7,4.7,1.3,6.4,1.9c6.3,1.9,8.4,2.5,14.6,1.9
						c0.3,0,0.6,0.1,0.7,0.4c0.1,0.3,0.1,0.6-0.1,0.8c-0.1,0.1-8.3,10.9-21.5,10.9c-0.2,0-0.5,0-0.7,0l0.9,0.5
						c2.9-0.9,23.4-5.9,34.4,20.7c0.1,0.4,0,0.8-0.3,1c-0.3,0.2-0.8,0.1-1-0.2c-0.1-0.1-2.2-2.5-10.6-3.4l-1.8-0.2
						c-8.4-0.9-17.1-1.8-25.6-14.4l-4.5-2.3c1.2,1.9,2.5,4.6,3.4,8.4c1.6,7.3,2.9,10.3,5.6,12.9c0.2,0.2,0.3,0.6,0.1,0.9
						C161.5,331.8,161.2,331.9,160.9,331.9z M120.3,283.9c0.2,0,0.5,0.1,0.6,0.3c2.9,4,17.3,14.8,17.4,14.9c0.2,0.2,0.4,0.5,0.3,0.8
						c-1.7,6.4-1,12.2,2,17.1c4.6,7.6,13.7,11.3,18,12.7c-1.8-2.5-3-5.7-4.3-11.7c-1.5-7-5.1-10.4-5.1-10.5c-0.3-0.3-0.3-0.7-0.1-1
						c0.2-0.3,0.6-0.4,1-0.2l7.8,4c0.1,0.1,0.2,0.1,0.3,0.3c8.1,12.1,16.1,13,24.6,13.9l1.8,0.2c4.6,0.5,7.5,1.5,9.3,2.4
						c-11.4-24.3-30.8-17.6-31.7-17.3c-0.2,0.1-0.4,0.1-0.6,0l-5-2.5c-0.3-0.2-0.5-0.6-0.4-0.9c0.1-0.4,0.5-0.6,0.9-0.5
						c12.2,2.4,20.8-5.2,23.8-8.4c-5.2,0.3-7.7-0.4-13.4-2.1c-1.8-0.5-3.8-1.2-6.4-1.9c-11.4-3.2-19.8,3.9-19.9,3.9
						c-0.3,0.2-0.6,0.2-0.9,0.1c-5.3-3.3-12.4-10.4-12.7-10.7c-0.2-0.2-0.3-0.6-0.1-0.9c0.2-0.3,0.5-0.4,0.9-0.3
						c11.8,3.8,18.8,0.7,21.8-1.4c-3.3-0.4-6.7-3.4-10.5-6.7c-2.6-2.3-5.3-4.6-8.2-6.4c-7.8-4.8-17-1.7-17.1-1.6
						c-0.4,0.1-0.7,0-0.9-0.4c-6-11.2-6.9-18.6-7-18.9c0-0.3,0.2-0.7,0.5-0.8c0.3-0.1,0.7,0,0.9,0.3c7.3,9.9,21.1,8.9,26.3,8.1
						c-2.1-1.2-5-3.5-9.8-12.6c-6.1-11.4-18.8-10.1-18.9-10.1c-0.2,0-0.4,0-0.6-0.2c-0.2-0.1-0.3-0.4-0.2-0.6
						c0.4-15.1,3.3-21.6,3.5-21.8c0.2-0.3,0.5-0.5,0.9-0.4c0.4,0.1,0.6,0.4,0.6,0.8c-0.7,12.2,11.7,19,17.1,21.4c-1-2.4-2-7-1.5-16
						c0.9-15.5-8.5-21.2-8.6-21.2c-0.4-0.2-0.5-0.7-0.3-1c1.9-3.6,11.2-12.4,11.6-12.7c0.3-0.2,0.7-0.3,1-0.1
						c0.3,0.2,0.4,0.6,0.3,0.9c-6.6,16.2,6.5,28.8,11.4,32.8c-1-3.7-0.9-5.2,3.6-17.8c5.2-14.5-4-23.3-4.4-23.6
						c-0.2-0.2-0.3-0.4-0.2-0.6c0-0.2,0.1-0.4,0.3-0.6c17.2-11.3,28.4-13.2,28.8-13.3c0.4-0.1,0.7,0.2,0.9,0.5
						c0.1,0.4-0.1,0.8-0.4,0.9c-5.4,2.5-9,6.2-10.8,11.2c-3.1,8.7,0.2,19,1.8,22.9c2.3-5.3,5.3-8.1,16.8-16.8
						c12.1-9.1,6.9-22.8,6.7-23.3c-0.1-0.3,0-0.6,0.2-0.8c0.3-0.3,8.2-7.7,21.2-7c0.2-0.3,0.6-0.9,0.9-1.4l-15.4,0.6l-19.9,7.8
						c-0.3,0.1-0.6,0-0.8-0.2c-6-6.3-13-9.6-20.7-9.8c-13.2-0.3-25.2,8.5-29.9,12.4c3.4-0.2,8.9,0.3,13.9,2.5
						c6.9,3,13.2,3.7,13.3,3.7c0.3,0,0.6,0.3,0.7,0.6c0.1,0.3-0.1,0.7-0.4,0.8l-9.7,5.6c-0.2,0.1-0.5,0.1-0.8,0
						c-23.5-14.1-42,6.9-47.2,13.8c2.9-0.9,7.5-1.7,14-0.6c8.8,1.5,15.6,0.3,15.7,0.3c0.3-0.1,0.6,0.1,0.8,0.4
						c0.2,0.3,0.1,0.6-0.1,0.9l-6.8,8.6c-0.2,0.2-0.4,0.3-0.7,0.3c-8.5-1-15.9,0.8-21.7,5.5c-9.9,8-13.2,22.1-14.1,27.9
						c3.4-3.5,7.6-5.4,14.7-8c7.7-2.8,11.5-8.1,11.5-8.2c0.2-0.3,0.7-0.4,1-0.2c0.3,0.2,0.5,0.6,0.3,1c-1.9,4.3-2.3,21.5-2.3,21.7
						c0,0.3-0.2,0.6-0.5,0.7c-7.1,2.9-12,7.5-14.4,13.8c-4.1,10.5-0.5,22.9,1.4,28c1-3.9,3.4-7.9,7.2-12c4.7-5.1,7.2-11.8,7.2-11.9
						c0.1-0.3,0.4-0.6,0.8-0.5c0.3,0,0.6,0.3,0.7,0.6c1.5,7.2,7.5,18.5,7.6,18.6c0.1,0.3,0.1,0.6-0.1,0.9
						c-4.4,5.2-6.3,10.9-5.6,16.9c1,9.7,8.5,17.9,12.3,21.4c-0.5-2.3-0.7-5.8,0.8-10.6c2.4-7.9,1.2-15,1.1-15.1
						c-0.1-0.3,0.1-0.7,0.5-0.8C120.1,283.9,120.2,283.9,120.3,283.9z"/>
				</g>
				<path class="st0" d="M317.1,269.1c0.4,0.6,2.9-0.4,10-7.6c7.1-7.2,6.8-6.2,6.8-6.2s-27.1,28.6-13.7,35.1
					c8,3.8,30-14.9,41.3-25.4c0,0-20.5,24.6-3.7,25.9c12.1,0.9,40.9-28,38.9-30.2c-2.2-2.5-7.2,4.9-11.6,8.9
					c-4.3,4-14.6,14.5-19.7,13.2c-5.1-1.3,23.5-33.3,26-38.7c2.5-5.4-7.8-3.6-9.8-2c-2.1,1.6-47.2,43.6-51.4,40.5
					c-3.8-2.8,27.1-38.8,26.4-41c-0.7-2.1-7.4-2-16.3,4.1C331.3,251.8,314.6,265.5,317.1,269.1z"/>
				<path class="st0" d="M802.3,269.3c0.4,0.6,2.9-0.4,10-7.6c7.1-7.2,6.8-6.2,6.8-6.2s-27.1,28.6-13.7,35.1
					c8,3.8,30-14.9,41.3-25.4c0,0-20.5,24.6-3.7,25.9c12.1,0.9,40.9-28,38.9-30.2c-2.2-2.5-7.2,4.9-11.6,8.9
					c-4.3,4-14.6,14.5-19.7,13.2c-5.1-1.3,23.5-33.3,26-38.7c2.5-5.4-7.8-3.6-9.8-2c-2.1,1.6-47.2,43.6-51.4,40.5
					c-3.8-2.8,27.1-38.8,26.4-41c-0.7-2.1-7.4-2-16.3,4.1C816.6,251.9,799.8,265.6,802.3,269.3z"/>
				<path class="st0" d="M884.4,269.3c0.4,0.6,2.9-0.4,10-7.6c7.1-7.2,6.8-6.2,6.8-6.2s-27.1,28.6-13.7,35.1
					c8,3.8,30-14.9,41.3-25.4c0,0-20.5,24.6-3.7,25.9c12.1,0.9,40.9-28,38.9-30.2c-2.2-2.5-7.3,4.9-11.6,8.9
					c-4.3,4-14.6,14.5-19.7,13.2c-5.1-1.3,23.5-33.3,26-38.7c2.5-5.4-7.8-3.6-9.8-2c-2.1,1.6-47.2,43.6-51.4,40.5
					c-3.8-2.8,27.1-38.8,26.4-41c-0.7-2.1-7.4-2-16.3,4.1C898.7,251.9,882,265.6,884.4,269.3z"/>
				<g>
					<path class="st0" d="M518.9,167.3c-19.4-19.5-104.5,89.6-104.5,89.6c-12.8,11-16.1,14.1-15.1,15.3c1.2,1.4,5-2.3,5-2.3
						s-1.9,2.5-5.3,7.6c-8.5,13-5.7,15.6,0.9,13.4c6.6-2.2,22-16.8,29.4-23.9c7.4-7.1,19.6-15.6,25.2-19.3c5.5-3.7,8.5-3.6,5.9,1.7
						c-2.7,5.3,4.6,5.2,8.8,3.6c3.8-1.4,4.3-11.4-1.9-12.4c-4.3-0.6-4.5-1.9-13.2,2.5c-9.4,4.8-40,32.6-40,32.6
						c4.9-8.1,14.3-19.3,15.5-20.7c1.2-1.4,2-2.7,19.1-15.7C504.6,200,526.8,176.2,518.9,167.3z M497.3,193.8
						c-10.6,10.2-31.2,27.7-61.4,51.7c0,0,38.7-47.6,51.1-59.4c12.4-11.8,21.1-19.8,25.3-16.6C516.4,172.6,507.1,184.3,497.3,193.8z
						"/>
				</g>
				<g>
					<path class="st0" d="M473.6,267.6c-3.6,1.2-7.3,6.9-20.6,16.1c-13.3,9.1-9.1-6.2-14-10.9c-4.9-4.7-11.7,0-11.7,0
						c2.7-0.4,2.7,0.3,3.5,5.3c0.8,5-2.2,15.1,10,13.8C453,290.5,477.2,266.4,473.6,267.6z"/>
				</g>
				<g>
					<path class="st0" d="M841.4,168.1c-19.4-19.5-104.5,89.6-104.5,89.6c-12.8,11-16.1,14.1-15.1,15.3c1.2,1.4,5-2.3,5-2.3
						s-1.9,2.5-5.3,7.6c-8.5,13-5.7,15.6,0.9,13.4c6.6-2.2,22-16.8,29.4-23.9c7.4-7.1,19.6-15.6,25.2-19.3c5.5-3.7,8.5-3.6,5.9,1.7
						c-2.7,5.3,4.6,5.2,8.8,3.6c3.8-1.4,4.3-11.4-1.9-12.4c-4.3-0.6-4.5-1.9-13.2,2.5c-9.4,4.8-40,32.6-40,32.6
						c4.9-8.1,14.3-19.3,15.5-20.7c1.2-1.4,2-2.7,19.1-15.7C827.1,200.8,849.3,177,841.4,168.1z M819.8,194.5
						c-10.6,10.2-31.2,27.7-61.4,51.7c0,0,38.7-47.6,51.1-59.4c12.4-11.8,21.1-19.8,25.3-16.6C839,173.4,829.6,185.1,819.8,194.5z"
						/>
				</g>
				<g>
					<path class="st0" d="M796.1,268.4c-3.6,1.2-7.3,6.9-20.6,16.1c-13.3,9.1-9.1-6.2-14-10.9c-4.9-4.7-11.7,0-11.7,0
						c2.7-0.4,2.7,0.3,3.5,5.3c0.8,5-2.2,15.1,10,13.8C775.5,291.3,799.7,267.2,796.1,268.4z"/>
				</g>
				<path class="st0" d="M481.1,269.4c-2-1.6,6.4-12.1,26.4-23.2c9.7-5.1,19.6-7.6,19.6-4.3c0,2-0.8,1.9-3,3.2s-5.2,3.7-6.8,4.9
					c-1.6,1.2-29.6,26.9-25.9,36.7c0,0,5.9,5.8,23.7-15.7c0,0,3.5-13.4,13.2-19.1c0.2-0.1,0.3-0.3,0.4-0.5c0.3-1,1-3.8,1.2-6
					c0-0.1,0-0.2,0-0.3c-0.4-2-1-4.7,2.2-4.7c3.3,0,4.9,8.7,3.7,12.8c-1.4,4.5-3.3,10.1-14.3,21.7c0,0,3.7,0.9,12-6.5
					c8.3-7.4,10.5-8.4,11-7.8c0.5,0.6,1.1,4.3-9.1,11.3c-10.2,7-12.3,8.2-17.8,6.7c0,0-18,15.7-30.6,13c-12.6-2.8-3-23.2-2.2-24
					C484.9,267.6,482.2,270.3,481.1,269.4z"/>
				<path class="st0" d="M540.4,274c1.8-1.4,6.9-3.4,9.5-0.6c2.1,2.2-4.5,11.5,1.1,9.6c5.6-1.8,29.5-24.9,43.5-38.5
					c3-2.7,3.7-3.2,7.4-3.4c3.7-0.1,3.9-0.1,4.2,1.2c0.3,1.2-0.5,1.8-1.3,2.9c-0.8,1.1-23.3,28.9-24.9,33.7
					c-1.1,2.9-1.6,5.1,1.4,3.7c1.9-0.9,4.9-2.5,10.7-8.1c5.8-5.6,15.1-14.4,17.3-13.5c2.2,0.9-9,12.2-16,17.8
					c-6.9,5.6-14.2,12.3-22.4,11.6c-8.2-0.7-3.8-11.5-3.2-12.7c0.7-1.2,3.9-6.9,3.9-6.9s-18.5,19.9-29.8,19.6c0,0-7.5,0.4-6.1-8.3
					C537,276.7,540.4,274,540.4,274z"/>
				<path class="st0" d="M611.3,269.3c-0.7-0.7-0.3-2.2,4.8-6.4c5-4.2,17.3-13.4,17.5-13.7c0.3-0.3,10-10.6,16.6-8.2
					c0.9,0.3,1.6,0.6,1.7,1.3c0.1,0.7-16.1,21.2-17.5,23.2c-1.4,2-12,16-9.1,17.6c1.8,1,8.8-5,9.5-6.2c0.7-1.2,2.2-8.4,8.5-10.6
					c0.3-0.3,0.3-3.5,0-5.9s2-3.4,3.8-1.5c1.9,1.9,2.8,7.1,0.5,11.3c0,0,10.1-9.3,11.7-9.8c1.6-0.5,2.1,1.6-0.3,4.2
					c-2.4,2.6-5.9,5.9-9.9,9c-4,3.1-10.9,9.8-14.9,10.6c-3.3,2.4-15.5,9.6-21.1,5.9c-6.2-4.1,1-15.1,2.2-17.5
					c1.1-2.1,5.5-8.8,6.2-9.8c0,0,0,0,0,0C619.8,263.6,612.6,270.5,611.3,269.3z"/>
				<path class="st0" d="M663.4,269.3c-0.7-0.5,0.4-5.2,14.6-15.3c14.2-10.2,28-16.7,34.1-11.4c3.4,3.4,1.5,10.9-1.5,14.6
					c-2.9,3.7-4.1,5.3-7.9,4.9c-3.8-0.4-2.3-6.2-0.7-8.6c1.6-2.4,4.1-7.3,3.2-8.1c-1-0.8-5.2-0.9-14.5,9.8
					c-9.3,10.7-19.8,27-14.6,30c5.2,3,18.7-5.4,22.1-8.1c3.3-2.7,18.2-14.8,19-14.9c0.8-0.1,1.8,0-0.5,3.6
					c-2.2,3.5-15.4,14.6-21.7,18.3c-6.3,3.7-17,10.6-28.7,6.5c-6.7-3.2-4.9-14,1-23.2C667.1,267.2,664.2,269.9,663.4,269.3z"/>
				<path class="st0" d="M934.2,224.9c0,0,5.7-3.5,4.6-8.6c-0.5-3-3.6-3.3-5.5-2.2c-1.9,1.1-5,6.8-2.5,12.6c2.6,5.8,8.5,6.5,20-1.5
					c9.2-6.3,9.5-11.9,7-10.7c-2.5,1.2-15.1,13.6-20.7,12.5C934.4,226.5,934.2,224.9,934.2,224.9z"/>
				<path class="st0" d="M386.2,144.7c-0.8-2.3-2.7-3.7-10.6-6.5c-7.9-2.9-22.9-4.7-40.7,9.4c-17.8,14.1-36.1,47.5-44.8,72.9
					c0,0-27.2-6.8-35.9-7.6c0,0,10.4-19.6,8.1-40c-1.6-10.3-12.6-13.4-31.2-4.6c0,0-5.9-30.7-41.7-23.2
					c-35.9,8.9-41.3,47.6-34.3,68.6c0,0-45.2,6.1-68.6,28.9c-23.4,22.8-22.3,56.6,23,63.9c45.3,7.2,81.6-12.9,109.7-41.6
					c0,0,25.6-1,34.7-23.3c0.6-1.9-0.5-2.3-1.2-2.3c-0.8,0.1-1.4-0.5-2.5,2.2c-1.1,2.7-6.8,15.2-27.5,19.4c0,0,18.1-19.5,27.7-40
					c0,0,16.5,1.5,36.9,7c0,0-20.7,58,4.1,63.4c8.3,1.2,13.9-2.3,16.1-4.4c2.1-2.1,0.3-3.9-1-3.6c-1.3,0.3-9.4,7.8-15.2,1.4
					c-5.8-6.5-2.2-28.7,6.9-53.8c0,0,16.8,4.5,18.1,9.8c1.3,5.4-5,7.6-2.7,9.7c1.2,1,4.3-0.4,7.5-5.5c3.2-5.1-0.2-11.4-7-15.3
					c-6.8-3.9-12.8-5.4-13.1-5.7c-0.4-0.2,18.4-49.4,49.4-75.5c4.2-3.4,17.8-12.8,29.6-3.6C385.3,149.5,387.5,149.4,386.2,144.7z
					 M218.5,154.5c18.2,19.1,3.1,56.1,3.1,56.1c-29.9-1.9-60.6,2.3-60.6,2.3c-1.9-4-2.4-17.5-2.4-17.5
					C158.6,151.7,200.3,135.3,218.5,154.5z M218.6,218.5c0,0-8,22-23.1,38c0,0-20.6-6.6-31.8-34.7
					C163.8,221.8,199.1,216.7,218.6,218.5z M131.6,302.5c-42,1.8-49.4-16.6-49.2-26.7c0.2-10.2,6-26.4,39.4-42.6
					c0,0,18.3-8.1,36.8-10.5c0,0,11,26.7,34.5,36.6c0,0-18.2,23.2-46.8,31.3c-31.7,9-39.7-0.6-40.6-1.3c-0.8-0.6-3.3-1.8-3.4,0.9
					c-0.1,3.4,14.2,11.1,38.6,5c25.3-6.2,42.3-19.4,56.2-34.3l8.9,2.7C206.1,263.6,173.6,300.7,131.6,302.5z M208.6,260.7
					c-2.3-0.1-8.8-2.5-8.8-2.5c17.3-19.8,24.3-39.4,24.3-39.4l12.8,0.4C223.9,245.8,208.6,260.7,208.6,260.7z M240.5,211.6l-13-1
					c8.2-25.2,4.5-38.9,4.5-38.9s1.5-0.8,6.2-2.3c5.1-1,8.9-0.1,9.5,8.1C248.2,195.5,240.5,211.6,240.5,211.6z"/>
			</g>
		</g>
	</g>
</svg>
